<svg xmlns="http://www.w3.org/2000/svg" xmlns:xlink="http://www.w3.org/1999/xlink" viewBox="0 0 199.53 244.8"><defs><style>.cls-1{isolation:isolate;}.cls-2{fill:#4dd0e1;}.cls-3{fill:#e7edf4;}.cls-4{mix-blend-mode:multiply;fill:url(#linear-gradient);}.cls-5{fill:#fff;}.cls-6{fill:#235196;}.cls-7,.cls-8,.cls-9{fill:none;stroke-width:3.1px;}.cls-7{stroke:#235196;stroke-linejoin:round;}.cls-8{stroke:#e7edf4;}.cls-8,.cls-9{stroke-linecap:round;stroke-miterlimit:10;}.cls-9{stroke:#d1dde8;}</style><linearGradient id="linear-gradient" x1="267.94" y1="124.1" x2="4.73" y2="124.1" gradientTransform="matrix(1, 0.09, -0.09, 1, -98.3, -21.14)" gradientUnits="userSpaceOnUse"><stop offset="0" stop-color="#fff" stop-opacity="0"/><stop offset="1" stop-color="#235196"/></linearGradient></defs><title>img_receta</title><g class="cls-1"><g id="Layer_2" data-name="Layer 2"><g id="Section_1" data-name="Section 1"><g id="_Group_" data-name="&lt;Group&gt;"><path id="_Path_" data-name="&lt;Path&gt;" class="cls-2" d="M170.6,244.7,26.43,220.1a7.32,7.32,0,0,1-6.06-7.87L38.67,6.67A7.33,7.33,0,0,1,46,0L192.27,1.25a7.32,7.32,0,0,1,7.23,8L179.13,238.13A7.33,7.33,0,0,1,170.6,244.7Z"/><polygon id="_Path_2" data-name="&lt;Path&gt;" class="cls-3" points="169.89 237.41 28.29 213.25 45.69 17.77 189.33 19 169.89 237.41"/><polygon id="_Path_3" data-name="&lt;Path&gt;" class="cls-4" points="169.89 237.41 28.29 213.25 45.69 17.77 189.33 19 169.89 237.41"/><path id="_Path_4" data-name="&lt;Path&gt;" class="cls-5" d="M189.33,19,45.69,17.77S26.64,178.69,14.45,189l143.46,31.31Z"/><path id="_Path_5" data-name="&lt;Path&gt;" class="cls-3" d="M14.45,189S-1.31,181.38.09,159.75l128,30s26.46,52.28,31.91,17.34l-2.06,13.19Z"/><g id="_Group_2" data-name="&lt;Group&gt;"><circle id="_Path_6" data-name="&lt;Path&gt;" class="cls-6" cx="93.15" cy="10.34" r="3.6" transform="translate(-0.17 19.03) rotate(-11.65)"/><circle id="_Path_7" data-name="&lt;Path&gt;" class="cls-6" cx="144.6" cy="10.26" r="3.6" transform="translate(1.25 31.84) rotate(-12.62)"/></g><path id="_Path_8" data-name="&lt;Path&gt;" class="cls-7" d="M93.15,10.34,92,23.15A3.5,3.5,0,0,0,95.5,27l17.12,0,0-.61A3.66,3.66,0,0,1,116.3,23h1.63a3.66,3.66,0,0,1,3.69,4h0l18.3,0a3.49,3.49,0,0,0,3.48-3.19l1.2-13.43"/><line id="_Path_9" data-name="&lt;Path&gt;" class="cls-8" x1="64.78" y1="49.96" x2="155.76" y2="52.35"/><line id="_Path_10" data-name="&lt;Path&gt;" class="cls-8" x1="63.56" y1="63.61" x2="154.55" y2="66.01"/><line id="_Path_11" data-name="&lt;Path&gt;" class="cls-8" x1="61.32" y1="77.18" x2="152.3" y2="79.57"/><line id="_Path_12" data-name="&lt;Path&gt;" class="cls-8" x1="59.08" y1="90.74" x2="150.06" y2="93.14"/><line id="_Path_13" data-name="&lt;Path&gt;" class="cls-8" x1="56.83" y1="104.3" x2="147.82" y2="106.7"/><path id="_Path_14" data-name="&lt;Path&gt;" class="cls-3" d="M100.86,138.32a14.38,14.38,0,1,1-13-15.59A14.38,14.38,0,0,1,100.86,138.32Z"/><path id="_Path_15" data-name="&lt;Path&gt;" class="cls-9" d="M60,146.08a23,23,0,0,1-4.88-17.78c.23-1.52.84-3.26,2.32-3.69,2.18-.61,3.74,2,4.44,4.2.9,2.78,1.81,5.56,2.71,8.34a2.38,2.38,0,0,0,.84,1.38c2.2,1.37,3.24-4.95,5.66-4,1.32.51.91,2.55,1.69,3.73.89,1.33,2.94,1.1,4.33.33s2.66-2,4.24-2.11,3,.68,4.55.51c2.65-.28,4.73-3.47,7.3-2.75"/></g></g></g></g></svg>