<svg xmlns="http://www.w3.org/2000/svg" xmlns:xlink="http://www.w3.org/1999/xlink" viewBox="0 0 237.58 308.04"><defs><style>.cls-1{fill:none;}.cls-2{isolation:isolate;}.cls-3{clip-path:url(#clip-path);}.cls-4{fill:#fda;}.cls-5{fill:#ac9180;}.cls-6{fill:#978072;}.cls-7{fill:#cee7d3;}.cls-8{fill:#7b4c3e;}.cls-9{fill:#8c625b;}.cls-10{fill:#fcca94;}.cls-11{fill:#ffe6c6;}.cls-12{fill:#bb9e8b;}.cls-13{fill:#b4ddc8;}.cls-14{fill:#ebf4e8;}.cls-15,.cls-17{fill:#fff;}.cls-16{fill:#ec9b3b;}.cls-17{font-size:9.78px;}.cls-17,.cls-54{font-family:Nunito-Bold, Nunito;font-weight:700;}.cls-18{letter-spacing:-0.01em;}.cls-19{letter-spacing:0em;}.cls-20,.cls-54{opacity:0.77;}.cls-21{fill:url(#linear-gradient);}.cls-22{fill:#716f70;}.cls-23{fill:url(#linear-gradient-2);}.cls-24{fill:url(#radial-gradient);}.cls-25{fill:url(#linear-gradient-3);}.cls-26{fill:url(#linear-gradient-4);}.cls-27{fill:url(#linear-gradient-5);}.cls-28{fill:#8f94aa;opacity:0.52;mix-blend-mode:color-burn;}.cls-29{fill:url(#linear-gradient-6);}.cls-30{fill:url(#radial-gradient-2);}.cls-31{fill:url(#linear-gradient-7);}.cls-32{fill:url(#linear-gradient-8);}.cls-33{fill:url(#linear-gradient-9);}.cls-34{fill:url(#linear-gradient-10);}.cls-35{fill:#747b97;}.cls-36{fill:#313856;}.cls-37{fill:url(#radial-gradient-3);}.cls-38{fill:url(#linear-gradient-11);}.cls-39{fill:url(#radial-gradient-4);}.cls-40{fill:url(#linear-gradient-12);}.cls-41{fill:url(#radial-gradient-5);}.cls-42{fill:url(#linear-gradient-13);}.cls-43{fill:url(#radial-gradient-6);}.cls-44{fill:#949494;opacity:0.75;mix-blend-mode:screen;}.cls-45{fill:url(#linear-gradient-14);}.cls-46{fill:url(#linear-gradient-15);}.cls-47{fill:url(#linear-gradient-16);}.cls-48{fill:url(#linear-gradient-17);}.cls-49{fill:url(#radial-gradient-7);}.cls-50{fill:url(#radial-gradient-8);}.cls-51{fill:url(#linear-gradient-18);}.cls-52{fill:url(#linear-gradient-19);}.cls-53{fill:url(#linear-gradient-20);}.cls-54{font-size:8.89px;fill:#111d5e;}.cls-55{letter-spacing:0em;}.cls-56{letter-spacing:-0.1em;}</style><clipPath id="clip-path" transform="translate(-8.94 -4.04)"><rect class="cls-1" width="235.54" height="259.68"/></clipPath><linearGradient id="linear-gradient" x1="61.62" y1="105.7" x2="65.23" y2="105.7" gradientUnits="userSpaceOnUse"><stop offset="0" stop-color="#040c2e"/><stop offset="0.18" stop-color="#132848"/><stop offset="0.38" stop-color="#1f3f5e"/><stop offset="0.5" stop-color="#234766"/><stop offset="0.62" stop-color="#204160"/><stop offset="0.77" stop-color="#173151"/><stop offset="0.95" stop-color="#091537"/><stop offset="1" stop-color="#040c2e"/></linearGradient><linearGradient id="linear-gradient-2" x1="70.01" y1="111.77" x2="70.01" y2="104.72" gradientUnits="userSpaceOnUse"><stop offset="0" stop-color="#fff"/><stop offset="1" stop-color="#ccccd1"/></linearGradient><radialGradient id="radial-gradient" cx="70.01" cy="109.41" r="5.06" gradientUnits="userSpaceOnUse"><stop offset="0" stop-color="#fff"/><stop offset="1" stop-color="#c0ccd1"/></radialGradient><linearGradient id="linear-gradient-3" x1="64.63" y1="105.63" x2="75.92" y2="105.63" xlink:href="#linear-gradient"/><linearGradient id="linear-gradient-4" x1="71.18" y1="104.94" x2="71.18" y2="100.39" gradientUnits="userSpaceOnUse"><stop offset="0" stop-color="#000624"/><stop offset="0.32" stop-color="#0b1c39"/><stop offset="0.74" stop-color="#16334f"/><stop offset="1" stop-color="#1a3b57"/></linearGradient><linearGradient id="linear-gradient-5" x1="113.45" y1="204.47" x2="113.45" y2="204.02" gradientTransform="matrix(1, 0.08, -0.08, 1, -20.71, -107.71)" gradientUnits="userSpaceOnUse"><stop offset="0" stop-color="#fff"/><stop offset="0.09" stop-color="#d9dfe4"/><stop offset="0.23" stop-color="#a5b4c0"/><stop offset="0.34" stop-color="#8094a6"/><stop offset="0.44" stop-color="#688196"/><stop offset="0.5" stop-color="#607a90"/><stop offset="0.56" stop-color="#667f94"/><stop offset="0.65" stop-color="#768da0"/><stop offset="0.74" stop-color="#92a4b3"/><stop offset="0.85" stop-color="#b8c3cd"/><stop offset="0.95" stop-color="#e8ecef"/><stop offset="1" stop-color="#fff"/></linearGradient><linearGradient id="linear-gradient-6" x1="2413.15" y1="111.77" x2="2413.15" y2="104.72" gradientTransform="matrix(-1, 0, 0, 1, 2469.99, 0)" xlink:href="#linear-gradient-2"/><radialGradient id="radial-gradient-2" cx="2413.15" cy="109.41" r="5.06" gradientTransform="matrix(-1, 0, 0, 1, 2469.99, 0)" xlink:href="#radial-gradient"/><linearGradient id="linear-gradient-7" x1="2407.77" y1="105.63" x2="2419.06" y2="105.63" gradientTransform="matrix(-1, 0, 0, 1, 2469.99, 0)" xlink:href="#linear-gradient"/><linearGradient id="linear-gradient-8" x1="2414.32" y1="104.94" x2="2414.32" y2="100.39" gradientTransform="matrix(-1, 0, 0, 1, 2469.99, 0)" xlink:href="#linear-gradient-4"/><linearGradient id="linear-gradient-9" x1="2448.23" y1="7.66" x2="2448.23" y2="7.21" gradientTransform="matrix(-1, 0.08, 0.08, 1, 2490.7, -107.71)" xlink:href="#linear-gradient-5"/><linearGradient id="linear-gradient-10" x1="-174.98" y1="41.64" x2="-174.98" y2="34.34" gradientTransform="translate(229.55)" gradientUnits="userSpaceOnUse"><stop offset="0.01" stop-color="#ba8325"/><stop offset="0.24" stop-color="#c89329"/><stop offset="0.72" stop-color="#e1b030"/><stop offset="1" stop-color="#eabb33"/></linearGradient><radialGradient id="radial-gradient-3" cx="58.64" cy="43.35" r="4.75" gradientUnits="userSpaceOnUse"><stop offset="0.01" stop-color="#5f1b0b"/><stop offset="0.28" stop-color="#874816"/><stop offset="0.61" stop-color="#b07721"/><stop offset="0.86" stop-color="#c99428"/><stop offset="1" stop-color="#d39f2b"/></radialGradient><linearGradient id="linear-gradient-11" x1="49.7" y1="43.18" x2="49.7" y2="35.44" gradientUnits="userSpaceOnUse"><stop offset="0" stop-color="#efb649"/><stop offset="0.22" stop-color="#e4ab43"/><stop offset="0.6" stop-color="#c88e33"/><stop offset="0.99" stop-color="#a56a1e"/></linearGradient><radialGradient id="radial-gradient-4" cx="49.67" cy="41.24" r="5.27" xlink:href="#radial-gradient"/><linearGradient id="linear-gradient-12" x1="2582.2" y1="41.64" x2="2582.2" y2="34.34" gradientTransform="matrix(-1, 0, 0, 1, 2658.76, 0)" xlink:href="#linear-gradient-10"/><radialGradient id="radial-gradient-5" cx="2815.82" cy="43.35" r="4.75" gradientTransform="matrix(-1, 0, 0, 1, 2888.32, 0)" xlink:href="#radial-gradient-3"/><linearGradient id="linear-gradient-13" x1="2815.82" y1="47.22" x2="2815.82" y2="39.47" gradientTransform="matrix(-1, 0, 0, 1, 2879.38, -4.04)" xlink:href="#linear-gradient-11"/><radialGradient id="radial-gradient-6" cx="2815.78" cy="45.28" r="5.27" gradientTransform="matrix(-1, 0, 0, 1, 2879.38, -4.04)" xlink:href="#radial-gradient"/><linearGradient id="linear-gradient-14" x1="2615.32" y1="71.61" x2="2615.32" y2="65.73" gradientTransform="matrix(-1, 0, 0, 1, 2672.26, 0)" gradientUnits="userSpaceOnUse"><stop offset="0" stop-color="#000004"/><stop offset="0.33" stop-color="#000c1c"/><stop offset="0.74" stop-color="#001933"/><stop offset="1" stop-color="#001d3b"/></linearGradient><linearGradient id="linear-gradient-15" x1="3072.16" y1="79.39" x2="3072.16" y2="70.01" gradientTransform="matrix(-1, 0, 0, 1, 3144.41, 0)" gradientUnits="userSpaceOnUse"><stop offset="0" stop-color="#eabb33"/><stop offset="0.28" stop-color="#e1b030"/><stop offset="0.76" stop-color="#c89329"/><stop offset="0.99" stop-color="#ba8325"/></linearGradient><linearGradient id="linear-gradient-16" x1="58.78" y1="79.39" x2="58.78" y2="70.01" gradientTransform="matrix(1, 0, 0, 1, 0, 0)" xlink:href="#linear-gradient-15"/><linearGradient id="linear-gradient-17" x1="51.44" y1="71.87" x2="79.59" y2="71.87" xlink:href="#linear-gradient"/><radialGradient id="radial-gradient-7" cx="2917.67" cy="76.61" r="6.09" gradientTransform="matrix(-1, 0, 0, 1, 2990.09, 0)" xlink:href="#linear-gradient-2"/><radialGradient id="radial-gradient-8" cx="-95.71" cy="76.61" r="6.09" gradientTransform="translate(154.32)" xlink:href="#linear-gradient-2"/><linearGradient id="linear-gradient-18" x1="43.31" y1="67.93" x2="43.31" y2="67.52" gradientUnits="userSpaceOnUse"><stop offset="0" stop-color="#fff"/><stop offset="0.03" stop-color="#fdfaef"/><stop offset="0.16" stop-color="#f7e3ac"/><stop offset="0.27" stop-color="#f1d278"/><stop offset="0.37" stop-color="#edc653"/><stop offset="0.45" stop-color="#ebbe3b"/><stop offset="0.5" stop-color="#eabb33"/><stop offset="0.55" stop-color="#ebbd39"/><stop offset="0.63" stop-color="#ecc249"/><stop offset="0.71" stop-color="#efcc65"/><stop offset="0.8" stop-color="#f3d88b"/><stop offset="0.89" stop-color="#f8e9bc"/><stop offset="0.99" stop-color="#fefcf7"/><stop offset="1" stop-color="#fff"/></linearGradient><linearGradient id="linear-gradient-19" x1="-398.05" y1="71.61" x2="-398.05" y2="65.73" gradientTransform="translate(472.16)" xlink:href="#linear-gradient-14"/><linearGradient id="linear-gradient-20" x1="3065.62" y1="71.97" x2="3065.62" y2="71.55" gradientTransform="matrix(1, 0, 0, -1, -2986.83, 143.52)" xlink:href="#linear-gradient-18"/></defs><title>img_comprar</title><g class="cls-2"><g id="Layer_2" data-name="Layer 2"><g id="Section_1" data-name="Section 1"><g class="cls-3"><path class="cls-1" d="M30.62,168.52a12.45,12.45,0,0,1-1.23.36c.42.16.84.34,1.24.53C30.63,169.12,30.62,168.82,30.62,168.52Z" transform="translate(-8.94 -4.04)"/><path class="cls-4" d="M9.75,106.37C10,113.16,20.29,119,30.29,121.93c0-8.43-.05-17-.06-25.28a25.09,25.09,0,0,0-7.51-1.12c-4.63,0-8.26,1.23-10.5,3.56A9.57,9.57,0,0,0,9.75,106.37Z" transform="translate(-8.94 -4.04)"/><path class="cls-5" d="M142.23,91.53c-.31-36.56-.58-68.14-.28-71.63.68-7.83-5-13.51-9.35-14.6-1.24-.31-8.49-.46-21.56-.46-13.56,0-31.32.16-45.59.3-10.14.09-18.89.18-23.63.18-4.49,0-9.64,4.69-10.33,15-.41,6.25-.59,56.26-.41,103.15a16.75,16.75,0,0,1,7,3.35C38,120.5,38,114,37.93,107.57c-.12-23.63-.09-42.71.08-56.7.32-26,1.05-26.42,1.49-26.64C41.33,23.32,72.79,23,92.19,23c11.62,0,22.13.1,29.6.29,13.45.33,13.45.77,13.45,1.32,0,.16,0,1.63,0,4.18.15,13,.6,51.84.81,88.74,2.07.73,4.22,1.54,6.36,2.38C142.38,110.32,142.3,100.71,142.23,91.53ZM99.78,17.84H72.59a2.28,2.28,0,0,1-2-1,3.78,3.78,0,0,1-.57-2.14c0-2.28,1.33-4.82,3.25-4.82h26.83c1.73,0,2.64,2,2.64,4S101.85,17.84,99.78,17.84Zm12.52.71a4.7,4.7,0,1,1,4.7-4.69A4.69,4.69,0,0,1,112.3,18.55Z" transform="translate(-8.94 -4.04)"/><path class="cls-6" d="M138.85,151.7l-2.65-1.24c0,42.41-.75,42.77-1.18,43-1.22.61-23.73.83-38.56.83h0c-14.77,0-28.42-.18-38.43-.5-18.91-.6-19-1.49-19.1-2.07-.1-.79-.32-13.35-.53-31.19a13.26,13.26,0,0,1-7,7.69c0,.55,0,1.08,0,1.62a12.52,12.52,0,0,1,3.3,2.67,10.07,10.07,0,0,1,2.36,8.29,14.23,14.23,0,0,1-5.34,9.61c.21,10.24.48,16.91.81,17.95,1.87,6,13.38,6.65,17.17,6.88s30.78.82,51.89.82h0c10.81,0,18-.16,21.38-.46,12.28-1.12,18.08-7.67,19.32-12.93.46-2,.5-21.68.38-47.1A10.28,10.28,0,0,0,138.85,151.7Zm-38.67,55.93a1.6,1.6,0,0,1-1.6,1.6H72.36a1.6,1.6,0,0,1-1.6-1.6v-6.18a1.61,1.61,0,0,1,1.6-1.61H98.58a1.61,1.61,0,0,1,1.6,1.61Z" transform="translate(-8.94 -4.04)"/><path class="cls-6" d="M32.9,146.65A13.16,13.16,0,0,1,37,149.78a10.23,10.23,0,0,1,1.33,2c0-2.84-.06-5.78-.09-8.79A12.9,12.9,0,0,1,32.9,146.65Z" transform="translate(-8.94 -4.04)"/><path class="cls-7" d="M119.87,114.65c3-1.08,8.83.31,15.42,2.58-.13-24.26-.4-53.93-.8-88.45,0-2.1-.05-3.47-.05-4-1.93-.61-18.69-1-42.25-1-27.17,0-50.39.51-52.27,1.14-.5,1-1.56,11.6-1.18,83.71,0,6.35.08,12.71.13,18.94.2.2.39.41.58.63a9.16,9.16,0,0,1,2.1,7.64A14.57,14.57,0,0,1,39,142c0,4.24.08,8.34.13,12.24a10.13,10.13,0,0,1,0,3.3c.21,18.86.45,32.54.55,34,1.71,1.17,24.4,2,56.74,2h0c21.84,0,36.52-.37,38.11-.73.55-1.62.82-16.41.82-42.67l-1.76-.82c-3-1.41-5.21-2.43-7-3.33-1.83,1.31-14.63,10.2-24.71,10.2a13.49,13.49,0,0,1-4.15-.61c-13.48-4.34-15.49-10.12-15.49-13.17,0-2.8,4.8-4.53,9.89-6.37,3.62-1.31,7.36-2.66,8.51-4.24C104.11,127,112.57,117.31,119.87,114.65Z" transform="translate(-8.94 -4.04)"/><path class="cls-4" d="M23.18,145.05a11,11,0,0,1,2.36-.24,16.73,16.73,0,0,1,6.31,1.35,12.67,12.67,0,0,0,8.91-10.45,8.26,8.26,0,0,0-1.93-7c-2.85-3.38-7.83-4.89-11.49-4.89a11.28,11.28,0,0,0-2.4.24c-5.23,1.12-6.52,5.56-6.82,8.11C17.51,137.31,19.75,142.85,23.18,145.05Z" transform="translate(-8.94 -4.04)"/><path class="cls-4" d="M22.25,167.23a10.06,10.06,0,0,0,2,.76h.44a12.75,12.75,0,0,1,2.93.35c5.38-.34,9.75-4.7,10.74-10.83a8.57,8.57,0,0,0-2-7.2c-2.76-3.24-7.42-4.68-10.81-4.68a10.33,10.33,0,0,0-2.29.23c-4.94,1.11-6.19,5.48-6.5,8C16.07,159.36,18.54,165.37,22.25,167.23Z" transform="translate(-8.94 -4.04)"/><path class="cls-4" d="M21.73,190.41A8.64,8.64,0,0,0,26,191.52c5.15,0,9.4-4.46,10.34-10.85A9.29,9.29,0,0,0,34.12,173a13,13,0,0,0-9.44-4.25,8.38,8.38,0,0,0-2.06.24c-4.34,1.07-5.53,5.27-5.84,7.68C16,182.24,18.31,188.52,21.73,190.41Z" transform="translate(-8.94 -4.04)"/><path class="cls-8" d="M246.15,286.26c-1.36-1.37-10.07-13.85-18.5-25.93-6.37-9.14-12.4-17.77-15.34-21.75-5.56-7.5-20.32-27.42-20.67-42-.25-10-5.51-26.69-9.35-38.87-1.66-5.24-3.09-9.76-3.8-12.74-2.47-10.23-6.49-14.81-14.82-16.89a124.91,124.91,0,0,1-12.7-4.8c-2.47-1-5.08-2.09-7.7-3.12-.08-9.54-.16-19.23-.24-28.69-.31-36.54-.58-68.1-.28-71.55.72-8.27-5.32-14.29-10-15.45C131.47,4.2,124.36,4,111,4c-13.56,0-31.32.16-45.6.3-10.13.09-18.89.17-23.62.17-5,0-10.4,4.87-11.13,15.76-.33,5-.51,38.3-.46,75.54A26.74,26.74,0,0,0,26,94.92a28.5,28.5,0,0,0-3.28-.19c-4.85,0-8.68,1.31-11.07,3.8A10.31,10.31,0,0,0,9,106.4c.29,7.49,11.18,13.42,21.34,16.37v.54a16.58,16.58,0,0,0-3-.28,12.25,12.25,0,0,0-2.57.25c-4.17.9-6.89,4.11-7.45,8.81-.6,5.12,1.51,10.65,4.86,13.23-3.45,1.14-5.7,4.15-6.23,8.42C15.24,159.57,17.9,166,21.89,168l.59.28h-.05c-3.56.88-5.85,3.85-6.45,8.35-.78,5.94,1.62,12.45,5.36,14.52A9.41,9.41,0,0,0,26,192.33a9.68,9.68,0,0,0,5-1.42c.22,10.09.49,16.64.81,17.68,1.82,5.83,11.08,7,17.89,7.44,2.27.13,12.09.38,24,.57,7.39,7.53,19.76,18.78,33,23,15.5,4.88,25.55,10.64,29.87,17.13,3.6,5.39,16.95,36.83,17.58,40,.73,3.63,6.34,12.67,9.84,15.12a3,3,0,0,0,1.64.31h0c5.18,0,21.5-4,35.38-8,3.9-1.11,20.76-6,27.19-9.15l-.42-.65c-10.26,4.87-53.53,17-62.15,17a2.43,2.43,0,0,1-1.18-.16c-3.3-2.32-8.83-11.19-9.51-14.62-.74-3.7-14.4-35.31-17.7-40.25-4.43-6.65-14.62-12.52-30.3-17.45-12.75-4-24.72-14.71-32.12-22.17,8.58.13,18.15.23,26.75.23h0c10.83,0,18-.16,21.45-.46,12.7-1.16,18.73-8,20-13.55.47-2,.53-20.85.41-45.92,3,5.46,4.79,13.11,4.79,14.47a.41.41,0,1,0,.81,0c0-2.11-3.76-17.52-9.92-20.42L134,148.53c-3.12-1.46-5.38-2.51-7.22-3.43a.38.38,0,0,0-.41,0c-.18.13-17.94,13-28.34,9.62-9.5-3.06-14.94-7.59-14.94-12.41,0-2.23,5-4,9.36-5.62,3.91-1.41,7.6-2.74,8.89-4.52,3.4-4.68,11.72-14.22,18.83-16.8,5-1.82,19.76,4.24,30.53,8.67a122.9,122.9,0,0,0,12.81,4.83c8.08,2,11.81,6.28,14.23,16.3.72,3,2.15,7.54,3.81,12.79,3.83,12.13,9.07,28.75,9.31,38.65.32,13.1,11.3,29.55,20.83,42.41,2.94,4,9,12.6,15.33,21.73,8.45,12.1,17.18,24.62,18.6,26a.33.33,0,0,1,.12.31c-.25,1.35-5.69,3.77-9.66,5.54-3.16,1.41-5.9,2.62-7,3.55l0,0a.39.39,0,0,0,0,.56.37.37,0,0,0,.3.14.39.39,0,0,0,.27-.1c1-.85,3.82-2.12,6.84-3.46,5.91-2.63,9.81-4.48,10.12-6.12A1.11,1.11,0,0,0,246.15,286.26ZM92.15,136c-5.09,1.84-9.89,3.57-9.89,6.37,0,3.05,2,8.83,15.49,13.17a13.49,13.49,0,0,0,4.15.61c10.08,0,22.88-8.89,24.71-10.2,1.81.9,4,1.92,7,3.33l1.76.82c0,26.26-.27,41-.82,42.67-1.59.36-16.27.73-38.11.73h0c-32.34,0-55-.79-56.74-2-.1-1.44-.34-15.12-.55-34a10.13,10.13,0,0,0,0-3.3c0-3.9-.09-8-.13-12.24a14.57,14.57,0,0,0,2.56-6.16,9.16,9.16,0,0,0-2.1-7.64c-.19-.22-.38-.43-.58-.63,0-6.23-.1-12.59-.13-18.94-.38-72.11.68-82.66,1.18-83.71,1.88-.63,25.1-1.14,52.27-1.14,23.56,0,40.32.41,42.25,1,0,.51,0,1.88.05,4,.4,34.52.67,64.19.8,88.45-6.59-2.27-12.44-3.66-15.42-2.58-7.3,2.66-15.76,12.34-19.21,17.09C99.51,133.32,95.77,134.67,92.15,136Zm50.17,66.68c-1.24,5.26-7,11.81-19.32,12.93-3.38.3-10.57.46-21.38.46h0c-21.11,0-48-.59-51.89-.82s-15.3-.9-17.17-6.88c-.33-1-.6-7.71-.81-17.95a14.23,14.23,0,0,0,5.34-9.61,10.07,10.07,0,0,0-2.36-8.29,12.52,12.52,0,0,0-3.3-2.67c0-.54,0-1.07,0-1.62a13.26,13.26,0,0,0,7-7.69c.21,17.84.43,30.4.53,31.19.08.58.19,1.47,19.1,2.07,10,.32,23.66.5,38.43.5h0c14.83,0,37.34-.22,38.56-.83.43-.22,1.16-.58,1.18-43l2.65,1.24a10.28,10.28,0,0,1,3.85,3.86C142.82,181,142.78,200.7,142.32,202.66Zm-125.54-26c.31-2.41,1.5-6.61,5.84-7.68a8.38,8.38,0,0,1,2.06-.24A13,13,0,0,1,34.12,173a9.29,9.29,0,0,1,2.17,7.64c-.94,6.39-5.19,10.85-10.34,10.85a8.64,8.64,0,0,1-4.22-1.11C18.31,188.52,16,182.24,16.78,176.7Zm0-22.86c.31-2.51,1.56-6.88,6.5-8a10.33,10.33,0,0,1,2.29-.23c3.39,0,8.05,1.44,10.81,4.68a8.57,8.57,0,0,1,2,7.2c-1,6.13-5.36,10.49-10.74,10.83a12.75,12.75,0,0,0-2.93-.35h-.44a10.06,10.06,0,0,1-2-.76C18.54,165.37,16.07,159.36,16.75,153.84Zm1.37-21.66c.3-2.55,1.59-7,6.82-8.11a11.28,11.28,0,0,1,2.4-.24c3.66,0,8.64,1.51,11.49,4.89a8.26,8.26,0,0,1,1.93,7,12.67,12.67,0,0,1-8.91,10.45,16.73,16.73,0,0,0-6.31-1.35,11,11,0,0,0-2.36.24C19.75,142.85,17.51,137.31,18.12,132.18Zm12.5,36.34c0,.3,0,.6,0,.89-.4-.19-.82-.37-1.24-.53A12.45,12.45,0,0,0,30.62,168.52ZM38.2,143c0,3,.06,5.95.09,8.79a10.23,10.23,0,0,0-1.33-2,13.16,13.16,0,0,0-4.06-3.13A12.9,12.9,0,0,0,38.2,143ZM135.29,28.77c0-2.55,0-4,0-4.18,0-.55,0-1-13.45-1.32-7.47-.19-18-.29-29.6-.29-19.4,0-50.86.34-52.69,1.25-.44.22-1.17.59-1.49,26.64-.17,14-.2,33.07-.08,56.7,0,6.46.08,12.93.13,19.25a16.75,16.75,0,0,0-7-3.35c-.18-46.89,0-96.9.41-103.15.69-10.31,5.84-15,10.33-15,4.74,0,13.49-.09,23.63-.18,14.27-.14,32-.3,45.59-.3,13.07,0,20.32.15,21.56.46,4.36,1.09,10,6.77,9.35,14.6-.3,3.49,0,35.07.28,71.63.07,9.18.15,18.79.23,28.36-2.14-.84-4.29-1.65-6.36-2.38C135.89,80.61,135.44,41.75,135.29,28.77ZM25.9,95.72a26.45,26.45,0,0,1,4.33.93c0,8.33,0,16.85.06,25.28-10-3-20.28-8.77-20.54-15.56a9.57,9.57,0,0,1,2.47-7.28c2.24-2.33,5.87-3.56,10.5-3.56A26.7,26.7,0,0,1,25.9,95.72Z" transform="translate(-8.94 -4.04)"/><path class="cls-9" d="M100.14,10.68H73.31c-1.38,0-2.45,2.16-2.45,4a3,3,0,0,0,.43,1.69,1.48,1.48,0,0,0,1.3.64H99.78c1.51,0,2.19-1.59,2.19-3.17S101.29,10.68,100.14,10.68Z" transform="translate(-8.94 -4.04)"/><path class="cls-8" d="M100.14,9.88H73.31c-1.92,0-3.25,2.54-3.25,4.82a3.78,3.78,0,0,0,.57,2.14,2.28,2.28,0,0,0,2,1H99.78c2.07,0,3-2,3-4S101.87,9.88,100.14,9.88ZM99.78,17H72.59a1.48,1.48,0,0,1-1.3-.64,3,3,0,0,1-.43-1.69c0-1.86,1.07-4,2.45-4h26.83c1.15,0,1.83,1.62,1.83,3.18S101.29,17,99.78,17Z" transform="translate(-8.94 -4.04)"/><circle class="cls-9" cx="103.36" cy="9.82" r="3.89"/><path class="cls-8" d="M112.3,9.16a4.7,4.7,0,1,0,4.7,4.7A4.7,4.7,0,0,0,112.3,9.16Zm-3.89,4.7a3.89,3.89,0,1,1,3.89,3.89A3.89,3.89,0,0,1,108.41,13.86Z" transform="translate(-8.94 -4.04)"/><rect class="cls-9" x="62.62" y="196.61" width="27.82" height="7.78" rx="0.8" ry="0.8"/><path class="cls-8" d="M98.58,199.84H72.36a1.61,1.61,0,0,0-1.6,1.61v6.18a1.6,1.6,0,0,0,1.6,1.6H98.58a1.6,1.6,0,0,0,1.6-1.6v-6.18A1.61,1.61,0,0,0,98.58,199.84Zm.8,7.79a.8.8,0,0,1-.8.8H72.36a.8.8,0,0,1-.8-.8v-6.18a.8.8,0,0,1,.8-.8H98.58a.8.8,0,0,1,.8.8Z" transform="translate(-8.94 -4.04)"/><path class="cls-10" d="M10.58,101.55a10.76,10.76,0,0,0-.83,4.82C10,113.16,20.29,119,30.29,121.93l0-8.21a61.79,61.79,0,0,1-7-2.6A33.3,33.3,0,0,1,10.58,101.55Z" transform="translate(-8.94 -4.04)"/><path class="cls-10" d="M40.46,137.06c-1.35.43-2.71.84-4.09,1.15a27.75,27.75,0,0,1-18.22-2.33c.5,3.89,2.42,7.5,5,9.17a11,11,0,0,1,2.36-.24,16.73,16.73,0,0,1,6.31,1.35A12.5,12.5,0,0,0,40.46,137.06Z" transform="translate(-8.94 -4.04)"/><path class="cls-10" d="M38.11,158.69a24.26,24.26,0,0,1-17.63.72,18.9,18.9,0,0,1-3.74-1.86c.49,4.28,2.63,8.23,5.51,9.68a10.06,10.06,0,0,0,2,.76h.44a12.75,12.75,0,0,1,2.93.35C32.64,168,36.78,164.19,38.11,158.69Z" transform="translate(-8.94 -4.04)"/><path class="cls-10" d="M35.64,183.44a17.44,17.44,0,0,1-4.74,1.24,16.64,16.64,0,0,1-14.26-6c0,5,2.08,10,5.09,11.71A8.64,8.64,0,0,0,26,191.52C30.32,191.52,34,188.31,35.64,183.44Z" transform="translate(-8.94 -4.04)"/><path class="cls-10" d="M123,129.64c-1.33.84-2.44,2-3.68,3s-2.69,1.76-3.94,2.78c-.22.18,0,.53.27.46a16.68,16.68,0,0,0,4.3-2.16,14.56,14.56,0,0,0,3.91-3.19C124.28,130,123.53,129.32,123,129.64Z" transform="translate(-8.94 -4.04)"/><path class="cls-10" d="M124.52,126.41a11,11,0,0,0-1.54.75,8.11,8.11,0,0,0-1.59,1.05.48.48,0,0,0,.46.8,7,7,0,0,0,1.55-.7,10.37,10.37,0,0,0,1.52-.94C125.36,127.05,125.11,126.17,124.52,126.41Z" transform="translate(-8.94 -4.04)"/><path class="cls-10" d="M149.69,208.18a78.26,78.26,0,0,0-8.76,11.48c-.28.42.36.91.7.54A78.31,78.31,0,0,0,150.74,209,.67.67,0,0,0,149.69,208.18Z" transform="translate(-8.94 -4.04)"/><path class="cls-10" d="M153.17,207.56a26.74,26.74,0,0,0-1.91,3.73c-.27.56.54,1.05.84.49a27.14,27.14,0,0,0,1.91-3.86C154.19,207.39,153.45,207.16,153.17,207.56Z" transform="translate(-8.94 -4.04)"/><path class="cls-10" d="M167.33,219.13c-1.52,1.86-3,3.76-4.49,5.63-1.37,1.7-3,3.28-4.19,5.1-.2.29.19.7.49.49,3.67-2.56,6.82-6.69,9.23-10.41C168.78,219.31,167.81,218.54,167.33,219.13Z" transform="translate(-8.94 -4.04)"/><path class="cls-10" d="M172.72,218.37a16.26,16.26,0,0,0-3.08,4.81.56.56,0,0,0,.93.54,33.6,33.6,0,0,0,3.12-4.61C174,218.52,173.18,217.83,172.72,218.37Z" transform="translate(-8.94 -4.04)"/><path class="cls-10" d="M166.53,271.16a82.63,82.63,0,0,1-5.53-7c-.79-1.15-1.49-2.35-2.17-3.57-.41-.72-.69-1.68-1.44-2.11a.27.27,0,0,0-.4.23v.1a.16.16,0,0,0,.11.15l.09,0s0,0,.06,0c-.31.8,1.06,2.74,1.4,3.38.64,1.23,1.38,2.42,2.14,3.58a29.58,29.58,0,0,0,5.07,5.92A.48.48,0,0,0,166.53,271.16Z" transform="translate(-8.94 -4.04)"/><path class="cls-10" d="M168.56,268.6a40,40,0,0,1-3.35-4c-.33-.49-1.11-.05-.8.47a13.4,13.4,0,0,0,3.68,4.14C168.46,269.49,168.85,268.92,168.56,268.6Z" transform="translate(-8.94 -4.04)"/><path class="cls-10" d="M26.39,110a10.61,10.61,0,0,0-5.3-2.15.35.35,0,0,0-.17.65,22.1,22.1,0,0,0,2.35,1c.9.41,1.77.87,2.68,1.26A.44.44,0,0,0,26.39,110Z" transform="translate(-8.94 -4.04)"/><path class="cls-10" d="M26.72,108a3.83,3.83,0,0,1-1.5-.23.33.33,0,0,0-.33.57,2.1,2.1,0,0,0,1.92.28A.32.32,0,0,0,26.72,108Z" transform="translate(-8.94 -4.04)"/><path class="cls-10" d="M37.93,134.78a16.13,16.13,0,0,1-5.46,1.93c-.57.1-.39.93.13,1a8.53,8.53,0,0,0,6-2C39.05,135.21,38.45,134.49,37.93,134.78Z" transform="translate(-8.94 -4.04)"/><path class="cls-10" d="M37.48,132.66a3.23,3.23,0,0,1-1.75,1c-.33.08-.26.65.08.61A2.76,2.76,0,0,0,37.9,133C38.07,132.73,37.68,132.43,37.48,132.66Z" transform="translate(-8.94 -4.04)"/><path class="cls-10" d="M34.13,156.92c-2.67.38-5.26,1.08-8,1.34a.26.26,0,0,0,0,.51,16.14,16.14,0,0,0,8.29-1.05C35,157.49,34.57,156.85,34.13,156.92Z" transform="translate(-8.94 -4.04)"/><path class="cls-10" d="M32.34,182.67c-.77-.08-1.52-.1-2.29-.15s-1.49-.22-2.24-.26a.29.29,0,0,0-.15.54,6.66,6.66,0,0,0,4.79.64C32.9,183.32,32.76,182.72,32.34,182.67Z" transform="translate(-8.94 -4.04)"/><path class="cls-10" d="M33.58,181.15a1.61,1.61,0,0,1-1.37-.08.22.22,0,0,0-.27.35,1.37,1.37,0,0,0,1.86.11A.22.22,0,0,0,33.58,181.15Z" transform="translate(-8.94 -4.04)"/><path class="cls-11" d="M115.29,120.05a21.26,21.26,0,0,0-5.23,4.56c-1.48,1.68-3.19,3.75-3.81,5.93a.41.41,0,0,0,.68.4c1.58-1.55,2.74-3.56,4.24-5.23s3.24-3.15,4.84-4.74A.59.59,0,0,0,115.29,120.05Z" transform="translate(-8.94 -4.04)"/><path class="cls-11" d="M120.29,119.07c-.67.13-1.35.17-2,.26-.34,0-.61.55-.2.74a2.7,2.7,0,0,0,2.57-.2A.44.44,0,0,0,120.29,119.07Z" transform="translate(-8.94 -4.04)"/><path class="cls-11" d="M185.43,176.62c-.74-4.09-2.37-8-3.59-12s-2.16-8.11-3.65-12c-.16-.4-.88-.39-.82.12a89,89,0,0,0,2.82,12.35c1.09,4.07,2,8.33,3.92,12.12C184.5,178,185.57,177.38,185.43,176.62Z" transform="translate(-8.94 -4.04)"/><path class="cls-11" d="M186.23,179.7a.52.52,0,0,0-1,0,8.35,8.35,0,0,0,.71,4.5.43.43,0,0,0,.8-.22C186.59,182.55,186.27,181.14,186.23,179.7Z" transform="translate(-8.94 -4.04)"/><path class="cls-11" d="M215.82,248.62c-1.79-2.65-3.71-5.17-5.68-7.69-2.28-2.92-5.19-5.77-6.28-9.37a.28.28,0,0,0-.55.08c-.2,3.08,2.69,5.91,4.38,8.22,2.35,3.21,4.68,6.4,7.25,9.44C215.35,249.79,216.18,249.15,215.82,248.62Z" transform="translate(-8.94 -4.04)"/><path class="cls-11" d="M220.1,255.5c-.25-.37-.48-.75-.75-1.11a1.91,1.91,0,0,1-.45-1.35c.07-.59-.88-.7-1-.14a3,3,0,0,0,1.62,3.19C219.86,256.32,220.35,255.86,220.1,255.5Z" transform="translate(-8.94 -4.04)"/><path class="cls-11" d="M21.6,97.17a18.2,18.2,0,0,0-6.12,1.54.51.51,0,0,0,.26,1,18.05,18.05,0,0,0,6-1.44C22.25,98,22.25,97.1,21.6,97.17Z" transform="translate(-8.94 -4.04)"/><path class="cls-11" d="M26.77,97.32a4,4,0,0,0-.81-.25l-.87-.1c-.36,0-.42.54-.08.63l.84.22a4,4,0,0,0,.85.05C27,97.88,27.06,97.41,26.77,97.32Z" transform="translate(-8.94 -4.04)"/><path class="cls-11" d="M29.91,125.34a25.88,25.88,0,0,0-6.25.93.36.36,0,0,0,.09.71,25.44,25.44,0,0,0,6.27-.76A.45.45,0,0,0,29.91,125.34Z" transform="translate(-8.94 -4.04)"/><path class="cls-11" d="M27.51,147.93a10.64,10.64,0,0,0-6.4,1.62.37.37,0,0,0,.29.67c1-.23,2-.61,3.08-.85s2.12-.27,3.16-.51C28.19,148.73,28,148,27.51,147.93Z" transform="translate(-8.94 -4.04)"/><path class="cls-11" d="M30.08,171.93A8.28,8.28,0,0,0,24,171a.13.13,0,0,0,0,.26,25,25,0,0,1,5.8,1.25C30.18,172.64,30.39,172.11,30.08,171.93Z" transform="translate(-8.94 -4.04)"/><path class="cls-6" d="M136.1,117.51c2.07.73,4.22,1.54,6.36,2.38-.08-9.57-.16-19.18-.23-28.36-.09-10-.17-19.59-.24-28.36q-3.12,2.1-6.29,4.16C135.85,82.59,136,100.26,136.1,117.51Z" transform="translate(-8.94 -4.04)"/><path class="cls-6" d="M31.08,123.47a16.75,16.75,0,0,1,7,3.35C38,121,38,115.14,37.94,109.25c-2.29.34-4.6.61-6.9.79C31.05,114.52,31.07,119,31.08,123.47Z" transform="translate(-8.94 -4.04)"/><path class="cls-12" d="M50.75,7.05C47.39,6.4,43,6.46,39.81,8c-3,1.48-4.33,4.41-5,7.53a.36.36,0,0,0,.66.28c1.59-2.47,2.89-5,5.82-6.09s6.42-.68,9.49-1.11C51.56,8.52,51.52,7.2,50.75,7.05Z" transform="translate(-8.94 -4.04)"/><path class="cls-13" d="M78,130.79c-11,3.43-22.69,3.77-34.2,3.52l-2.11-.06a10.79,10.79,0,0,1-.14,1.59A14.57,14.57,0,0,1,39,142c0,4.24.08,8.34.13,12.24a10.13,10.13,0,0,1,0,3.3c.21,18.86.45,32.54.55,34,1.71,1.17,24.4,2,56.74,2h0c21.84,0,36.52-.37,38.11-.73.55-1.62.82-16.41.82-42.67l-1.76-.82c-3-1.41-5.21-2.43-7-3.33-1.83,1.31-14.63,10.2-24.71,10.2a13.49,13.49,0,0,1-4.15-.61c-13.48-4.34-15.49-10.12-15.49-13.17,0-2.8,4.8-4.53,9.89-6.37,3.62-1.31,7.36-2.66,8.51-4.24,3.45-4.75,11.91-14.43,19.21-17.09,3-1.08,8.83.31,15.42,2.58q-.06-11-.16-23.5-12.18,9.81-24.83,19C100.27,120,89.83,127.09,78,130.79Z" transform="translate(-8.94 -4.04)"/><path class="cls-14" d="M45.57,29.24a.58.58,0,0,0-1,0c-.93,1.69-.85,3.94-1,5.83-.16,2.64-.3,5.28-.46,7.92-.27,4.75-1.25,9.83-.57,14.56.18,1.29,2.06,1.06,2.39,0C46.36,53,46,47.69,46.17,43c.08-2.38.13-4.75.13-7.12C46.3,33.75,46.56,31.17,45.57,29.24Z" transform="translate(-8.94 -4.04)"/><path class="cls-14" d="M44,68.66c0-1.54.43-3,.45-4.58a.81.81,0,0,0-1.5-.41,12.13,12.13,0,0,0-.79,9.89A.94.94,0,0,0,44,73.32C44,71.76,44,70.21,44,68.66Z" transform="translate(-8.94 -4.04)"/><circle class="cls-15" cx="86.67" cy="181.84" r="7.5" transform="translate(-119.16 220.38) rotate(-76.72)"/><circle class="cls-15" cx="67.93" cy="181.84" r="6.16" transform="translate(-117.62 97.26) rotate(-45)"/><circle class="cls-15" cx="51.34" cy="181.84" r="6.16" transform="translate(-146.38 185.99) rotate(-76.72)"/><circle class="cls-15" cx="121.47" cy="181.84" r="6.16" transform="translate(-86.42 268.58) rotate(-80.78)"/><circle class="cls-15" cx="104.87" cy="181.84" r="6.16" transform="translate(-106.8 123.38) rotate(-45)"/><rect class="cls-16" x="44.67" y="135.9" width="64.95" height="19.49" rx="9.09" ry="9.09"/><text class="cls-17" transform="translate(57.48 148.47)"><tspan class="cls-18">C</tspan><tspan x="6.54" y="0">omp</tspan><tspan class="cls-19" x="26.58" y="0">r</tspan><tspan x="30.31" y="0">ar</tspan></text><g id="_Group_" data-name="&lt;Group&gt;" class="cls-20"><path id="_Path_" data-name="&lt;Path&gt;" class="cls-21" d="M65,106.34a.27.27,0,0,1-.27-.27c0-.13-.26-.47-1.26-.47s-1.25.34-1.26.47a.28.28,0,0,1-.28.26.26.26,0,0,1-.26-.26s0-1,1.8-1,1.81,1,1.81,1A.28.28,0,0,1,65,106.34Z" transform="translate(-8.94 -4.04)"/><path id="_Path_2" data-name="&lt;Path&gt;" class="cls-22" d="M70.14,111.89a6.28,6.28,0,0,1-3.27-.76c-1.93-1.22-2.12-4-1.78-5.11.39-1.32,3.64-1.42,4.62-1.42,1.87,0,4.17.31,4.75.89.83.83.92,3.85-.47,5.23a5.72,5.72,0,0,1-3.85,1.17Z" transform="translate(-8.94 -4.04)"/><path id="_Path_3" data-name="&lt;Path&gt;" class="cls-23" d="M65.2,106.06c-.34,1.16-.09,3.81,1.73,5s5.6,1,7-.39,1.23-4.3.46-5.07C73.36,104.55,65.76,104.16,65.2,106.06Z" transform="translate(-8.94 -4.04)"/><path id="_Path_4" data-name="&lt;Path&gt;" class="cls-24" d="M65.27,106.09c-.33,1.14-.09,3.76,1.71,4.9s5.51,1,6.87-.39,1.22-4.23.46-5C73.31,104.61,65.83,104.22,65.27,106.09Z" transform="translate(-8.94 -4.04)"/><path id="_Path_5" data-name="&lt;Path&gt;" class="cls-25" d="M66.53,104.52c-1.08.28-1.72.71-1.89,1.3a.74.74,0,0,0,.45.87l.11-.63c.11-.36.64-.74,1.48-1,2.59-.66,7.08-.15,7.73.5a2.79,2.79,0,0,1,.51,1.49h0a.21.21,0,0,0,.29,0c.62-.43.68-1,.69-2.22a.22.22,0,0,0-.19-.22A21.42,21.42,0,0,0,66.53,104.52Z" transform="translate(-8.94 -4.04)"/><path id="_Path_6" data-name="&lt;Path&gt;" class="cls-26" d="M75.85,104.75a22.19,22.19,0,0,0-2.28-2.62,4.76,4.76,0,0,0-4.13-1.72,5.39,5.39,0,0,0-2.82,1.09c-.28.28,0,.88.39.79s1.69-1.58,2.91-1.19c1.63.52,2.34,2.11,3.86,3.26q1,.14,2,.33A.17.17,0,0,1,75.85,104.75Z" transform="translate(-8.94 -4.04)"/><path id="_Path_7" data-name="&lt;Path&gt;" class="cls-27" d="M75.71,105.4c0,.12-.25.2-.55.18s-.52-.15-.51-.27.26-.2.55-.18S75.72,105.28,75.71,105.4Z" transform="translate(-8.94 -4.04)"/><path id="_Path_8" data-name="&lt;Path&gt;" class="cls-28" d="M70.27,107.85a11.2,11.2,0,0,1-5-1.06,2.92,2.92,0,0,1,.11-.66c.22-.74,1.87-1.21,4.3-1.21,2,0,4,.36,4.49.8a2.45,2.45,0,0,1,.48,1.32A11.84,11.84,0,0,1,70.27,107.85Z" transform="translate(-8.94 -4.04)"/><path id="_Path_9" data-name="&lt;Path&gt;" class="cls-22" d="M56.71,111.89a6.26,6.26,0,0,0,3.26-.76c1.94-1.22,2.12-4,1.79-5.11-.39-1.32-3.64-1.42-4.63-1.42-1.87,0-4.17.31-4.75.89-.83.83-.91,3.85.47,5.23a5.73,5.73,0,0,0,3.86,1.17Z" transform="translate(-8.94 -4.04)"/><path id="_Path_10" data-name="&lt;Path&gt;" class="cls-29" d="M61.64,106.06c.34,1.16.1,3.81-1.73,5s-5.59,1-7-.39-1.24-4.3-.47-5.07C53.49,104.55,61.08,104.16,61.64,106.06Z" transform="translate(-8.94 -4.04)"/><path id="_Path_11" data-name="&lt;Path&gt;" class="cls-30" d="M61.57,106.09c.34,1.14.1,3.76-1.7,4.9s-5.52,1-6.88-.39-1.21-4.23-.46-5C53.54,104.61,61,104.22,61.57,106.09Z" transform="translate(-8.94 -4.04)"/><path id="_Path_12" data-name="&lt;Path&gt;" class="cls-31" d="M60.32,104.52c1.08.28,1.71.71,1.89,1.3a.75.75,0,0,1-.46.87l-.11-.63c-.11-.36-.64-.74-1.47-1-2.6-.66-7.08-.15-7.73.5a2.7,2.7,0,0,0-.51,1.49h0a.22.22,0,0,1-.29,0c-.62-.43-.69-1-.69-2.22a.22.22,0,0,1,.18-.22A21.47,21.47,0,0,1,60.32,104.52Z" transform="translate(-8.94 -4.04)"/><path id="_Path_13" data-name="&lt;Path&gt;" class="cls-32" d="M51,104.75a20.38,20.38,0,0,1,2.28-2.62,4.76,4.76,0,0,1,4.13-1.72,5.42,5.42,0,0,1,2.82,1.09c.28.28,0,.88-.4.79s-1.69-1.58-2.91-1.19c-1.63.52-2.34,2.11-3.85,3.26-.65.09-1.3.2-2,.33A.17.17,0,0,0,51,104.75Z" transform="translate(-8.94 -4.04)"/><path id="_Path_14" data-name="&lt;Path&gt;" class="cls-33" d="M51.13,105.4c0,.12.26.2.55.18s.52-.15.51-.27-.25-.2-.55-.18S51.12,105.28,51.13,105.4Z" transform="translate(-8.94 -4.04)"/><path id="_Path_15" data-name="&lt;Path&gt;" class="cls-28" d="M56.57,107.85a11.24,11.24,0,0,0,5-1.06,3.62,3.62,0,0,0-.11-.66c-.22-.74-1.87-1.21-4.3-1.21-2,0-4.05.36-4.49.8a2.37,2.37,0,0,0-.48,1.32A11.79,11.79,0,0,0,56.57,107.85Z" transform="translate(-8.94 -4.04)"/></g><g id="_Group_2" data-name="&lt;Group&gt;" class="cls-20"><path id="_Path_16" data-name="&lt;Path&gt;" class="cls-34" d="M52.43,41.45a24.59,24.59,0,0,1,3.91-7.11l.38.26a27,27,0,0,0-3.7,7Z" transform="translate(-8.94 -4.04)"/><path id="_Path_17" data-name="&lt;Path&gt;" class="cls-35" d="M53.06,41.69a.36.36,0,0,0-.72,0v0h0c0,.47.15.86,1.29,1.1L53.7,42A.77.77,0,0,1,53.06,41.69Z" transform="translate(-8.94 -4.04)"/><path id="_Path_18" data-name="&lt;Path&gt;" class="cls-36" d="M56.31,34.27a6.2,6.2,0,0,1,1-.92,1.51,1.51,0,0,1,1.64.15,3.61,3.61,0,0,1,1.11.83c.24.24,0,1-.26,1S58.24,33,57.54,33.69c-.26.27-.74.94-.74.94s-.08.08-.31,0A.33.33,0,0,1,56.31,34.27Z" transform="translate(-8.94 -4.04)"/><path id="_Path_19" data-name="&lt;Path&gt;" class="cls-37" d="M58.64,47.39c-3,0-5.37-1.81-5.37-4s2.41-4.05,5.37-4.05S64,41.12,64,43.35,61.6,47.39,58.64,47.39Z" transform="translate(-8.94 -4.04)"/><ellipse id="_Path_20" data-name="&lt;Path&gt;" class="cls-38" cx="49.7" cy="39.31" rx="5.14" ry="3.87"/><ellipse id="_Path_21" data-name="&lt;Path&gt;" class="cls-39" cx="49.7" cy="39.31" rx="4.98" ry="3.71"/><path id="_Path_22" data-name="&lt;Path&gt;" class="cls-28" d="M58.64,43.69a20.39,20.39,0,0,1-4.83-.56c.15-1.9,2.25-3.37,4.83-3.37s4.69,1.47,4.84,3.37A20.41,20.41,0,0,1,58.64,43.69Z" transform="translate(-8.94 -4.04)"/><path id="_Path_23" data-name="&lt;Path&gt;" class="cls-40" d="M78.71,41.45a24.35,24.35,0,0,0-3.91-7.11l-.38.26a27.33,27.33,0,0,1,3.71,7Z" transform="translate(-8.94 -4.04)"/><path id="_Path_24" data-name="&lt;Path&gt;" class="cls-35" d="M78.09,41.69a.36.36,0,1,1,.72,0s0,0,0,0h0c0,.47-.16.86-1.29,1.1L77.45,42A.77.77,0,0,0,78.09,41.69Z" transform="translate(-8.94 -4.04)"/><path id="_Path_25" data-name="&lt;Path&gt;" class="cls-36" d="M74.83,34.27a6,6,0,0,0-1-.92,1.51,1.51,0,0,0-1.64.15,3.71,3.71,0,0,0-1.12.83c-.23.24,0,1,.27,1S72.91,33,73.6,33.69a10,10,0,0,1,.74.94s.09.08.32,0A.33.33,0,0,0,74.83,34.27Z" transform="translate(-8.94 -4.04)"/><path id="_Path_26" data-name="&lt;Path&gt;" class="cls-41" d="M67.13,43.35c0-2.23,2.41-4.05,5.37-4.05s5.37,1.82,5.37,4.05-2.41,4-5.37,4S67.13,45.58,67.13,43.35Z" transform="translate(-8.94 -4.04)"/><ellipse id="_Path_27" data-name="&lt;Path&gt;" class="cls-42" cx="63.56" cy="39.31" rx="5.14" ry="3.87"/><ellipse id="_Path_28" data-name="&lt;Path&gt;" class="cls-43" cx="63.56" cy="39.31" rx="4.98" ry="3.71"/><path id="_Path_29" data-name="&lt;Path&gt;" class="cls-28" d="M72.5,43.69a20.41,20.41,0,0,0,4.84-.56c-.16-1.9-2.26-3.37-4.84-3.37s-4.68,1.47-4.84,3.37A20.41,20.41,0,0,0,72.5,43.69Z" transform="translate(-8.94 -4.04)"/><path id="_Path_30" data-name="&lt;Path&gt;" class="cls-35" d="M67.13,43.49a.16.16,0,0,1-.16-.16v-.9c0-.16-.25-.62-1.4-.62s-1.4.46-1.4.62v.9a.16.16,0,0,1-.16.16.16.16,0,0,1-.15-.16v-.9s0-.94,1.71-.94,1.72.93,1.72.94v.9A.16.16,0,0,1,67.13,43.49Z" transform="translate(-8.94 -4.04)"/><path id="_Path_31" data-name="&lt;Path&gt;" class="cls-44" d="M65.57,41.64c1.34,0,1.63.57,1.7.82,0-.14-.16-.91-1.7-.91s-1.68.77-1.69.91C63.94,42.21,64.24,41.64,65.57,41.64Z" transform="translate(-8.94 -4.04)"/><path id="_Path_32" data-name="&lt;Path&gt;" class="cls-35" d="M70.85,39.62H60.3a.16.16,0,1,1,0-.32H70.85a.16.16,0,1,1,0,.32Z" transform="translate(-8.94 -4.04)"/><path id="_Path_33" data-name="&lt;Path&gt;" class="cls-44" d="M70.62,39.43H60.52c-.08,0-.15,0-.15,0s.07,0,.15,0h10.1c.09,0,.15,0,.15,0S70.71,39.43,70.62,39.43Z" transform="translate(-8.94 -4.04)"/></g><g id="_Group_3" data-name="&lt;Group&gt;" class="cls-20"><path id="_Path_34" data-name="&lt;Path&gt;" class="cls-45" d="M62.11,68c-.23,0-1.51-1.91-3.76-1.53s-2.39,1.93-2.69,2A4.78,4.78,0,0,0,53.06,71a1.39,1.39,0,0,1-1.62.26,14.79,14.79,0,0,1,2.76-3.38c1.84-1.85,3.32-2.22,5-2.08a5.28,5.28,0,0,1,3,1.16C62.57,67.26,62.42,68.08,62.11,68Z" transform="translate(-8.94 -4.04)"/><path id="_Path_35" data-name="&lt;Path&gt;" class="cls-46" d="M65.82,70h9.47a3.15,3.15,0,0,1,3.4,3.16,8.34,8.34,0,0,1-2.37,5.15,4.51,4.51,0,0,1-3.2,1.07h0a5.18,5.18,0,0,1-3.94-1.45c-1.58-1.78-1.67-4.36-1.88-5.66a1.32,1.32,0,0,0-1.48-1.22Z" transform="translate(-8.94 -4.04)"/><path id="_Path_36" data-name="&lt;Path&gt;" class="cls-47" d="M65.22,70H55.75a3.15,3.15,0,0,0-3.4,3.16,8.34,8.34,0,0,0,2.37,5.15,4.48,4.48,0,0,0,3.19,1.07h0a5.2,5.2,0,0,0,4-1.45c1.58-1.78,1.66-4.36,1.88-5.66a1.32,1.32,0,0,1,1.48-1.22Z" transform="translate(-8.94 -4.04)"/><path id="_Path_37" data-name="&lt;Path&gt;" class="cls-48" d="M78.11,70.84a3.83,3.83,0,0,0-2.82-1.14H55.75a3.86,3.86,0,0,0-2.83,1.14c-.28.31-1.48.11-1.48.38,0,1.44.57,1.52.61,2,.05.75.32.85.41.85h11c.94,0-.23-2.68,2-2.68S66.6,74,67.55,74h11c.09,0,.36-.1.41-.85,0-.45.6-.53.6-2C79.59,71,78.4,71.15,78.11,70.84Z" transform="translate(-8.94 -4.04)"/><path id="_Path_38" data-name="&lt;Path&gt;" class="cls-44" d="M57.91,79.05a4.21,4.21,0,0,1-2.95-1,6.69,6.69,0,0,1-1.89-5.43c.38-1.36,1.57-1.89,4.38-2h1c2.91,0,4.25.39,4.47,2.71a5.89,5.89,0,0,1-1.31,4.33,5,5,0,0,1-3.7,1.32Z" transform="translate(-8.94 -4.04)"/><path id="_Path_39" data-name="&lt;Path&gt;" class="cls-44" d="M73.13,79.05a4.23,4.23,0,0,0,3-1A6.64,6.64,0,0,0,78,72.66c-.38-1.36-1.56-1.89-4.37-2h-1c-2.91,0-4.25.39-4.47,2.71a5.85,5.85,0,0,0,1.31,4.33,5,5,0,0,0,3.7,1.32Z" transform="translate(-8.94 -4.04)"/><path id="_Path_40" data-name="&lt;Path&gt;" class="cls-49" d="M69.55,77.63a5.77,5.77,0,0,1-1.28-4.21c.22-2.3,1.48-2.66,5.32-2.56,2.82.07,3.88.61,4.22,1.84A6.54,6.54,0,0,1,76,78C74.52,79.42,70.72,79.05,69.55,77.63Z" transform="translate(-8.94 -4.04)"/><path id="_Path_41" data-name="&lt;Path&gt;" class="cls-28" d="M68.45,74.94a64.51,64.51,0,0,0,9.28-1,3.52,3.52,0,0,0,0-1.24c-.29-1-1.08-1.67-4.12-1.75l-1,0c-3.11,0-4,.53-4.2,2.47A6.37,6.37,0,0,0,68.45,74.94Z" transform="translate(-8.94 -4.04)"/><path id="_Path_42" data-name="&lt;Path&gt;" class="cls-50" d="M61.49,77.63a5.76,5.76,0,0,0,1.27-4.21c-.22-2.3-1.48-2.66-5.31-2.56-2.83.07-3.88.61-4.23,1.84A6.59,6.59,0,0,0,55.07,78C56.52,79.42,60.32,79.05,61.49,77.63Z" transform="translate(-8.94 -4.04)"/><path id="_Path_43" data-name="&lt;Path&gt;" class="cls-28" d="M62.59,74.94a64.81,64.81,0,0,1-9.29-1,3.48,3.48,0,0,1,0-1.24c.29-1,1.07-1.67,4.11-1.75l1,0c3.11,0,4,.53,4.19,2.47A5.88,5.88,0,0,1,62.59,74.94Z" transform="translate(-8.94 -4.04)"/><rect id="_Rectangle_" data-name="&lt;Rectangle&gt;" class="cls-51" x="42.79" y="67.52" width="1.03" height="0.41"/><path id="_Path_44" data-name="&lt;Path&gt;" class="cls-52" d="M68.92,68c.24,0,1.52-1.91,3.77-1.53s2.39,1.93,2.69,2A4.77,4.77,0,0,1,78,71a1.39,1.39,0,0,0,1.62.26,14.38,14.38,0,0,0-2.75-3.38c-1.84-1.85-3.32-2.22-5-2.08a5.28,5.28,0,0,0-3,1.16C68.47,67.26,68.62,68.08,68.92,68Z" transform="translate(-8.94 -4.04)"/><rect id="_Rectangle_2" data-name="&lt;Rectangle&gt;" class="cls-53" x="78.28" y="71.55" width="1.03" height="0.41" transform="translate(148.64 139.48) rotate(180)"/></g><path class="cls-4" d="M245.71,287.14a.33.33,0,0,0-.12-.31c-1.42-1.42-10.15-13.94-18.6-26-6.37-9.13-12.39-17.76-15.33-21.73-9.53-12.86-20.51-29.31-20.83-42.41-.24-9.9-5.48-26.52-9.31-38.65-1.66-5.25-3.09-9.79-3.81-12.79-2.42-10-6.15-14.28-14.23-16.3a122.9,122.9,0,0,1-12.81-4.83c-10.77-4.43-25.52-10.49-30.53-8.67-7.11,2.58-15.43,12.12-18.83,16.8-1.29,1.78-5,3.11-8.89,4.52-4.39,1.59-9.36,3.39-9.36,5.62,0,4.82,5.44,9.35,14.94,12.41,10.4,3.36,28.16-9.49,28.34-9.62a.38.38,0,0,1,.41,0c1.84.92,4.1,2,7.22,3.43l5.22,2.44c6.16,2.9,9.92,18.31,9.92,20.42a.41.41,0,1,1-.81,0c0-1.36-1.78-9-4.79-14.47.12,25.07.06,43.92-.41,45.92-1.3,5.53-7.33,12.39-20,13.55-3.4.3-10.62.46-21.45.46h0c-8.6,0-18.17-.1-26.75-.23,7.4,7.46,19.37,18.15,32.12,22.17,15.68,4.93,25.87,10.8,30.3,17.45,3.3,4.94,17,36.55,17.7,40.25.68,3.43,6.21,12.3,9.51,14.62a2.43,2.43,0,0,0,1.18.16c8.62,0,51.89-12.09,62.15-17l.42.65.81,1.27c1.1-.93,3.84-2.14,7-3.55C240,290.91,245.46,288.49,245.71,287.14Z" transform="translate(-8.94 -4.04)"/><path class="cls-10" d="M150.11,252.51c-1.07-7.49,6.43-18.74,3.22-19.27s-3.11-.58-12.59,1.61c-3.48.8-17.66-3.22-14.18-7s11.24-7.77,15.26-11.51S159,190.94,159,185.06s-1.07-34.27-7-39.62-23.29-13.39-26.77-12.05-13.39,9.91-25.43,15.26a21.37,21.37,0,0,1-10.79,2,38.72,38.72,0,0,0,9,4.06c10.4,3.36,28.16-9.49,28.34-9.62a.38.38,0,0,1,.41,0c1.84.92,4.1,2,7.22,3.43l5.22,2.44c6.16,2.9,9.92,18.31,9.92,20.42a.41.41,0,1,1-.81,0c0-1.36-1.78-9-4.79-14.47.12,25.07.06,43.92-.41,45.92-1.3,5.53-7.33,12.39-20,13.55-3.4.3-10.62.46-21.45.46h0c-8.6,0-18.17-.1-26.75-.23,7.4,7.46,19.37,18.15,32.12,22.17,15.68,4.93,25.87,10.8,30.3,17.45,3.3,4.94,17,36.55,17.7,40.25.68,3.43,6.21,12.3,9.51,14.62a2.43,2.43,0,0,0,1.18.16c4,0,15.25-2.55,27.28-5.79C173.25,294.65,151.05,259.06,150.11,252.51Z" transform="translate(-8.94 -4.04)"/><text class="cls-54" transform="translate(81.05 40.35)"><tspan class="cls-55">S</tspan><tspan class="cls-56" x="5.71" y="0">/</tspan><tspan x="7.58" y="0">. 35.00</tspan></text><text class="cls-54" transform="translate(81.05 72.83)"><tspan class="cls-55">S</tspan><tspan class="cls-56" x="5.71" y="0">/</tspan><tspan x="7.58" y="0">. 38.00</tspan></text><text class="cls-54" transform="translate(81.05 104)"><tspan class="cls-55">S</tspan><tspan class="cls-56" x="5.71" y="0">/</tspan><tspan x="7.58" y="0">. 45.00</tspan></text></g></g></g></g></svg>