<svg xmlns="http://www.w3.org/2000/svg" xmlns:xlink="http://www.w3.org/1999/xlink" viewBox="0 0 222.37 527.39"><defs><style>.cls-1{fill:none;}.cls-2{isolation:isolate;}.cls-3{fill:#c6e3f4;}.cls-4{fill:#fff6ee;}.cls-5{fill:#fff;}.cls-6{fill:#ebf3fa;}.cls-7{fill:#f8fbff;}.cls-8{fill:#a8d29f;}.cls-9{fill:#2e3552;}.cls-10{clip-path:url(#clip-path);}.cls-11{fill:#e4edf2;}.cls-11,.cls-14{mix-blend-mode:multiply;}.cls-12{fill:#66d0de;}.cls-13{fill:#f8b5a2;}.cls-15{fill:#e1e0df;}.cls-16{fill:#c3edf2;}.cls-17{fill:#775a45;}.cls-18{fill:#f04d35;}.cls-19{fill:#383027;}.cls-20{fill:#c3c1be;}.cls-21{fill:#a5a29e;}</style><clipPath id="clip-path"><path class="cls-1" d="M29.38,30.83V218.64h166V30.83Z"/></clipPath></defs><title>img_foto</title><g class="cls-2"><g id="Layer_2" data-name="Layer 2"><g id="Section_1" data-name="Section 1"><path class="cls-3" d="M195.41,141.42v77.22l-56.45-.1h-4l-10.56,0H118l-22.54,0-21.08,0c.44-1.21,1.21-3.3,2.32-6,.84-2.12,1.88-4.63,3.11-7.43,1.51-3.47,3.29-7.39,5.33-11.57,1.43-2.93,3-6,4.67-9.13.15-.29.31-.57.47-.86,1.41-2.61,2.9-5.27,4.47-7.93a168.46,168.46,0,0,1,15.72-22.53,101.72,101.72,0,0,1,8.6-9.05,68.17,68.17,0,0,1,9.12-7.14l.45-.28a45.23,45.23,0,0,1,6.83-3.6,33.38,33.38,0,0,1,18.86-2.45C174.69,133.86,182.82,136.1,195.41,141.42Z"/><rect class="cls-4" x="4.39" y="3.27" width="213.46" height="236.55"/><path class="cls-5" d="M29.38,30.83V218.64h166V30.83Z"/><path class="cls-6" d="M29.38,30.83V218.64h166V30.83Z"/><polygon class="cls-7" points="195.41 44.23 195.41 187.02 145.16 193.55 144.68 193.61 139.53 194.28 138.72 194.38 133.06 195.12 132.15 195.24 123.99 196.3 121.89 196.57 113.85 197.61 99.99 199.42 79.76 202.04 73.57 202.85 72.47 202.99 29.38 208.59 29.38 90.34 67.35 79.8 77.72 76.92 79.24 76.5 79.31 76.48 80.16 76.24 81.94 75.75 90.65 73.33 98.04 71.28 100.11 70.7 100.11 70.7 100.14 70.69 109.98 67.96 109.98 67.96 114.45 66.72 116.34 66.19 117.02 66 147.89 57.43 195.41 44.23"/><path class="cls-8" d="M29.38,218.64V117.36a172,172,0,0,1,31.28,1h0c1,.13,2,.28,3,.44a100.7,100.7,0,0,1,13.52,3c.76.23,1.52.47,2.27.72,0,0,0,0,0,0,.72.24,1.42.48,2.11.74a0,0,0,0,1,0,0l1,.36,1.46.58a55.88,55.88,0,0,1,12.79,7.2,38.84,38.84,0,0,1,11,13c.9,1.74,1.75,3.59,2.58,5.57,3.45,8.27,6.25,18.54,8.54,29.77.51,2.54,1,5.13,1.47,7.75a1,1,0,0,0,0,.24.69.69,0,0,0,0,.13l.42,2.48c.35,2,.67,4.1,1,6.17.19,1.2.37,2.41.54,3.62.72,5.1,1.37,10.27,1.94,15.42l.33,3Z"/><polygon class="cls-7" points="36.4 30.83 29.38 33.17 29.38 30.83 36.4 30.83"/><path class="cls-8" d="M180.34,30.83h15.07v87.79c-.64-.09-1.28-.16-1.94-.24-16.15-1.92-27.84-6.18-36-11.78,1.89-6.54,7.37-12,7.37-12a29.61,29.61,0,0,0-13.46,6.93c-12.24-12.45-11.54-29-5-41.63a25.27,25.27,0,0,1,1.46-2.46c6.11-9.12,17.69-14.2,27.2-21.82,3.4,1.45,8.43,4.3,11.39,9.23,0,0-1.61-8.71-6.41-13.72Z"/><path class="cls-9" d="M222.37,247.94H0V0H222.37ZM8.12,239.82H214.25V8.12H8.12Z"/><g class="cls-10"><ellipse class="cls-11" cx="111.7" cy="503.18" rx="67.36" ry="24.21"/><path class="cls-12" d="M137.64,480.5s-2.58,6.49-1.4,7.11c6.43,3.36,26.13,14.43,26.44,20.5.36,7.18-15.39,3.92-22.78,1.44s-17.12-8.1-18.5-10.7,1.09-10.78,2-16.72C123.94,478.86,137.64,480.5,137.64,480.5Z"/><path class="cls-12" d="M94.18,480.73s1.11,6.69.59,7.11c-4.34,3.49-24.06,21.15-23.08,27.5,1.09,7.11,15.86.73,22.6-3.19s15.13-11.39,15.95-14.22-1.5-14-2-17.31S94.18,480.73,94.18,480.73Z"/><path class="cls-13" d="M172.91,272.3c-.54-32.82-6.17-74.17-11.64-89.21-2.32-6.38-5.07-9.29-7.35-10.85-3.1-2.11-5.43-1.49-5.43-1.49-17.77-.82-7.84,27.45-7.84,27.45s6,7.27,9.39,20.05c7.29,27.16,12.12,71,12.66,84.94a131.76,131.76,0,0,1-.19,15.76h0a12.59,12.59,0,0,0-1.69,2c-1,1.37-2.38,5.65-2.73,10.65s-.45,8.44,1,8.72,2.58-8.81,3.57-8-2,9.86-3,13.57,1.28,4.83,3,4.68c1.52-.13,2.67-1.95,3.67-3.52a26.08,26.08,0,0,0,3-8.19c.93-4.28,1.48-16.09,1.48-16.09h0A410.8,410.8,0,0,0,172.91,272.3Z"/><g class="cls-14"><path class="cls-15" d="M165.24,337.2c0-.2.37-.16.33.05a50.36,50.36,0,0,1-4.92,12.89,3,3,0,0,1-.28-.22C161.91,345.65,164,341.59,165.24,337.2Z"/><path class="cls-15" d="M164.15,347.25a46.26,46.26,0,0,0,3.27-9.37c.07-.28.51-.23.45.06a39.79,39.79,0,0,1-4.75,12.51,2.78,2.78,0,0,1-.5.11h-.29C162.94,349.45,163.6,348.37,164.15,347.25Z"/></g><path class="cls-12" d="M147.83,168.65a23.13,23.13,0,0,1,11.1,8.3c4.1,6.11,7.51,23.76,8.47,27.17s2.1,14.76,2.1,14.76l-18.79,7.34s-4.28-16.86-4.89-21-.35-19.13-.35-19.13Z"/><path class="cls-16" d="M147.89,222.93l2.21,8.27s5.36-2.21,11.77-4.19,9.2-2.62,9.2-2.62a22.94,22.94,0,0,0-.35-4.2,17.68,17.68,0,0,0-1.28-4.13,106.39,106.39,0,0,0-12.61,3.26A48.34,48.34,0,0,0,147.89,222.93Z"/><path class="cls-13" d="M78.19,171.48s-6.45,2.38-13.12,13.65c-6.11,10.32-14.42,34.1-12.6,57.58s15,40.71,18.75,44.64A87.05,87.05,0,0,0,79.78,295L82,281.57s-8.24-7.58-11.59-27c-2.73-15.8-.94-25.14,3.72-36.91a77.69,77.69,0,0,1,12-20.2s1.73-3.87-.08-11.31S78.19,171.48,78.19,171.48Z"/><path class="cls-12" d="M74.69,173.1s-6.83,5.45-10,11.27-8.85,22-8.85,22a32.85,32.85,0,0,1,9.43,5.24c4.43,3.61,8.86,7.11,8.86,7.11L81,208s2.33-14,1.17-21.55S74.69,173.1,74.69,173.1Z"/><path class="cls-13" d="M125.73,158.74a2.55,2.55,0,0,1-.93-1.65c-.2-1.72-1.54-20-.76-20-5.47.21-16,.42-21.48.62l.09-.14c0,5.2-.42,19.25-.87,20.73-1.1,3.62-8.09,5.6-8.21,5.81a4,4,0,0,0,0,1.29c.26,5.41,7.11,9.68,12.12,11.76s12.33,2.14,17.13-.37c5.16-2.7,11.75-7.79,11.83-13.62C131.17,161.76,126.83,159.65,125.73,158.74Z"/><g class="cls-14"><path class="cls-15" d="M102.48,147.1a25,25,0,0,0,21.76,2.43c-.37-5.69-.68-12.46-.2-12.48-5.44.21-15.9.41-21.39.62C102.67,139.85,102.6,143.48,102.48,147.1Z"/></g><path class="cls-13" d="M85,113.5a10.07,10.07,0,0,0-1.42-3.13,6.09,6.09,0,0,0-2.07-2.09,3,3,0,0,0-2.84-.13,3.86,3.86,0,0,0-1.51,1.92,9.91,9.91,0,0,0,.71,9,4.92,4.92,0,0,0,2.38,2.13c2,.69,4.19-.76,5-2.68S85,113.5,85,113.5Z"/><path class="cls-13" d="M151.12,110.07a3.79,3.79,0,0,0-1.5-1.92,3,3,0,0,0-2.85.13,6.62,6.62,0,0,0-2.37,2.21c-2.11,3.76-1.78,7.08-1.37,8,.81,1.92,3,3.37,5,2.68a4.83,4.83,0,0,0,2.38-2.13A9.87,9.87,0,0,0,151.12,110.07Z"/><path class="cls-17" d="M145.4,309.22c-3.19-16.16-5.32-20.9-10.37-34.34-2.77,4.52-34.65,1.95-41.41,1-8.76-1.25-12.72-6.46-12.72-6.46s-7.43,20.29-7.68,40.31,2.66,35.93,4,55.92c1.76,27.11,6.55,57.44,10.14,84.31.18,1.41.38,2.82.57,4.22,1.85,13.05,3.76,24.38,5.73,32.23a95.16,95.16,0,0,1,9.56-1.74c2.23-.32,4.41-.78,6.59-1.26.28-4.36.41-9.95.49-17.11.25-21.21-2-53.35-2.79-74.79-.47-11.88,1-55.38,2.79-79.45,0-.67.12-1.32.19-1.94a17.41,17.41,0,0,1,3.54,7.3c1.63,8.26,5.08,32.71,6.52,41,0,0,3.7,24.52,5.13,43.34,1.4,18.58,1.16,40.07-.23,60.81-.42,6.14-1.85,13.4-3,19.84,4.92.81,11.06.89,16.1,2.49,1-2.4,1.94-4.83,2.75-7.19,6.29-18.4,10-33.17,11.88-50.55.15-1.32.28-2.64.41-4C157.15,386.1,152.62,345.75,145.4,309.22Z"/><path class="cls-13" d="M145.78,168a95.07,95.07,0,0,0-9.76-4.31c-7.41-2.72-7.25-2.56-7.25-2.56-2.77-.09-4.88.46-7.62.37v-.08l-6.89.21-5.58-.08a.28.28,0,0,1,0,.09l-8.27.27s.58-.38-6.89,2.18a83.5,83.5,0,0,0-17.26,8.31l5.62,58.16c13.72-.71,27.36,1.25,40.86,3.63,6.4,1.13,12.83,2.2,19.23,3.4,2,.37,4,.77,6,1.25l4.5-53.67C148.38,181.54,146.32,173,145.78,168Z"/><path class="cls-13" d="M126.25,71.77c-10.35-5-23.52-3.83-31.75,4.64a26.72,26.72,0,0,0-2.15,2.48c-13.41,17.27-13.67,48.58,8.05,62.33s44.15-7.29,45.27-27.69c.73-13.18-2.66-28.74-13.37-37.84A27.87,27.87,0,0,0,126.25,71.77Z"/><path class="cls-18" d="M149.61,77.45a6.12,6.12,0,0,0-3.32-3,23.45,23.45,0,0,0-4.08-.84A10,10,0,0,1,140,73c-2.21-1-2.83-4-3.17-6.22-.56-3.71-1.84-6.21-5.94-6.91-3.72-.64-6.67.89-10.13-1.52-2-1.37-3.5-3.27-5.47-4.63-3.68-2.52-8-2.11-11.54.47-4.54,3.29-5.31,10.09-10.07,12.71-2.07,1.14-4.45,1.16-6.44,2.52a11.29,11.29,0,0,0-3.89,4.71,10.39,10.39,0,0,0-.82,6c.45,2.51,1.06,4.54.49,7.23-.29,1.37-1.11,2.72-1.48,4.09a27.69,27.69,0,0,0,1.27,17.85l0,0c-.27.37.35.85.63.49,4.83-6.06,5.8-13.77,5.68-21.3a15.72,15.72,0,0,0,2.25-3c1.14-1.93,1.69-3,4.22-3,1.45,0,2.66.66,4.11.27,2.45-.66,3-2.88,4.75-4.23s3,.26,4.11,1.68c3.35,4.16,7.73,6.88,12.73,3.35,1.35-1,2.7-3.47,4.25-4,2.46-.84,3.77,3.18,4.93,4.62,2.3,2.84,6.6,5.11,10.28,4.56-.92,7.71.08,15.59,3.89,22.48a.54.54,0,0,0,1-.19l.09-.12a48.41,48.41,0,0,0,4.68-16.81C150.84,89.33,151.9,82,149.61,77.45Z"/><path class="cls-19" d="M129,107.22a2.6,2.6,0,0,0-4.32-.47,6.58,6.58,0,0,0-1.26,5.86,3,3,0,0,0,1.94,2,3.27,3.27,0,0,0,3.35-1.27,5.48,5.48,0,0,0,.91-3.39A5.29,5.29,0,0,0,129,107.22Z"/><path class="cls-19" d="M100.62,106.64a2.6,2.6,0,0,1,4.31-.48,6.61,6.61,0,0,1,1.26,5.87,3,3,0,0,1-1.94,1.94,3.26,3.26,0,0,1-3.35-1.26,5.51,5.51,0,0,1-.91-3.4A5.29,5.29,0,0,1,100.62,106.64Z"/><g class="cls-14"><path class="cls-20" d="M114.65,102.34c-.08,1.88-.12,3.72,0,5.61.07,1.74.59,3.85.14,5.56-.81,3.06-3.91,2-5.62,4.08-3.69,4.44,6.62,4.93,8.84,4.29a.43.43,0,0,0-.11-.84c-1.87,0-6.13.89-7.76-.37-2.55-2,1.45-3.31,2.83-4,2.15-1,2.19-2.39,2.37-4.56a80.15,80.15,0,0,0,.19-9.8.42.42,0,0,0-.84,0Z"/></g><g class="cls-14"><path class="cls-21" d="M102.79,125.71c6.89,5.11,18.65,7.17,24.44-.81.35-.48-.36-.9-.75-.58-7.44,6-15.23,5.61-23.17.5-.57-.36-1,.51-.52.89Z"/></g><path class="cls-18" d="M123.24,102.13c2.61-.78,6-1.8,8.18.49,1.34,1.37,3.36-.37,2.56-2-1.94-3.9-9.32-3.14-11.79-.31a1.08,1.08,0,0,0,1,1.8Z"/><path class="cls-18" d="M105.81,102.13c-2.62-.78-6-1.8-8.19.49-1.34,1.37-3.36-.37-2.56-2,1.94-3.9,9.32-3.14,11.8-.31a1.09,1.09,0,0,1-1,1.8Z"/><path class="cls-12" d="M97.45,161.77a116.35,116.35,0,0,0-13.28,5.48,49,49,0,0,0-10.37,6.52,20.29,20.29,0,0,0-2.91,2.91s6.34,26.39,7.74,40.89,1.23,29.18.53,35-3.85,10.84-2.45,15.9S84.57,281.7,91.21,289s16.14,15.2,32.56,16.25,22.84-2.79,22.84-2.79.17-23.77,1.4-37.05,3.84-56.09,4.19-62,1.4-19,.35-25.16,0-6.64-2.8-8.57-16.07-7.45-16.07-7.45-5.48,7.1-19.23,6.17C104.88,167.76,97.45,161.77,97.45,161.77Z"/><path class="cls-16" d="M136,163.21l-2.28-1s-5.48,7.1-19.23,6.17c-9.57-.65-17-6.64-17-6.64s-1.14.38-2.9,1C104.45,175.08,125.93,175.33,136,163.21Z"/><path class="cls-16" d="M55.68,205.34a34.54,34.54,0,0,0-1.45,4.43,11.57,11.57,0,0,0-.41,3.2,61,61,0,0,1,11.47,4.66,44.86,44.86,0,0,1,8.33,6.18l3.38-6.3s-6.75-5.88-11.18-8.15A73.52,73.52,0,0,0,55.68,205.34Z"/><path class="cls-17" d="M86.37,494.88a15.06,15.06,0,0,1,7.53,1.68c2,1,3.33,2.67,5.09,3.93a.25.25,0,0,0,.37-.28c-1.76-4.76-8.47-6.57-13-6.15-.52.05-.54.84,0,.82Z"/><path class="cls-17" d="M90.57,489.64a11,11,0,0,1,10.19,3.89.33.33,0,0,0,.55-.23c-.33-4.56-7.52-5.35-10.85-4.47-.44.11-.37.87.11.81Z"/><path class="cls-17" d="M138.56,488.16c-4.18-1.74-8.67-.79-10.77,3.58-.14.3.16.68.48.48,1.4-.88,2.46-2.23,3.94-3,1.87-1,4.15-.75,6.14-.27a.39.39,0,0,0,.21-.76Z"/><path class="cls-17" d="M145.33,491.76c-4.82-1-11.26,1.3-12.33,6.6-.07.33.4.58.58.24a10,10,0,0,1,4.88-4.66c2.2-1,4.53-1,6.87-1.37.41-.06.39-.73,0-.81Z"/><path class="cls-16" d="M79.49,230.34c.48-5.85-.38-12.07-.76-17.92-.35-5.47-.88-10.9-1.71-16.31-.06-.36-.7-.28-.65.09.61,4.76,1,9.55,1.36,14.34.38,2.52.7,4.91.9,7C79.05,221.89,79.32,226.23,79.49,230.34Z"/><path class="cls-16" d="M151.75,194.17c-.65,9-.77,17.93-1.16,26.91s-1.26,17.85-1.24,26.77c.57-8.19,1.17-17.46,1.68-25.47,0-.43,0-.87.06-1.3.24-4.38.55-8.75.83-13.12L152,207c.27-4.28.51-8.56.63-12.86C152.62,193.62,151.79,193.63,151.75,194.17Z"/></g></g></g></g></svg>