<svg xmlns="http://www.w3.org/2000/svg" viewBox="0 0 427.2 68.71"><defs><style>.cls-1,.cls-2{fill:none;stroke:#ec9b3b;stroke-miterlimit:10;}.cls-1{stroke-width:3.73px;}.cls-2{stroke-width:2.24px;}.cls-3{fill:#10c7e5;}.cls-4{font-size:60.22px;fill:#ec9b3b;font-family:Futura-Bold, Futura;font-weight:700;}</style></defs><title>img_nunoptica_logo</title><g id="Layer_2" data-name="Layer 2"><g id="Header"><ellipse class="cls-1" cx="352.34" cy="34.35" rx="19.97" ry="20.91"/><ellipse class="cls-1" cx="405.36" cy="34.35" rx="19.97" ry="20.91"/><path class="cls-2" d="M373.06,30.62s5.79-5.79,11.58,0"/><path class="cls-3" d="M354,25l-4.85,7.1c-.82,1.19,1.12,2.31,1.93,1.13l4.85-7.09c.82-1.2-1.12-2.32-1.93-1.14Z"/><path class="cls-3" d="M364.44,23.89,350.26,44.8c-.82,1.2,1.12,2.32,1.93,1.13L366.38,25c.81-1.2-1.13-2.32-1.94-1.14Z"/><path class="cls-3" d="M404.77,23.89,399.91,31c-.81,1.19,1.13,2.31,1.94,1.13L406.7,25c.82-1.2-1.12-2.32-1.93-1.14Z"/><path class="cls-3" d="M415.22,22.77,401,43.68c-.81,1.2,1.13,2.32,1.94,1.13l14.18-20.9c.82-1.2-1.12-2.32-1.93-1.14Z"/><text class="cls-4" transform="translate(0 52.81)">nunoptica</text></g></g></svg>