<svg xmlns="http://www.w3.org/2000/svg" viewBox="0 0 360.52 55.79"><defs><style>.cls-1,.cls-2{fill:none;stroke:#eee;stroke-miterlimit:10;}.cls-1{stroke-width:3.84px;}.cls-2{stroke-width:2.3px;}.cls-3{fill:#d3d8e0;}.cls-4{font-size:48.9px;fill:#f7f7f7;font-family:Futura-Bold, Futura;font-weight:700;}</style></defs><title>img_negative</title><g id="Layer_2" data-name="Layer 2"><g id="Footer"><ellipse class="cls-1" cx="283.54" cy="30.29" rx="20.54" ry="21.5"/><ellipse class="cls-1" cx="338.06" cy="30.29" rx="20.54" ry="21.5"/><path class="cls-2" d="M304.85,26.45s5.95-5.95,11.9,0"/><path class="cls-3" d="M285.23,20.69l-5,7.29c-.84,1.23,1.16,2.38,2,1.17l5-7.3c.84-1.22-1.15-2.38-2-1.16Z"/><path class="cls-3" d="M296,19.54,281.39,41c-.83,1.23,1.17,2.38,2,1.16L298,20.7c.84-1.23-1.16-2.38-2-1.16Z"/><path class="cls-3" d="M337.45,19.54l-5,7.29c-.84,1.23,1.15,2.38,2,1.16l5-7.29c.84-1.23-1.16-2.38-2-1.16Z"/><path class="cls-3" d="M348.2,18.39l-14.59,21.5c-.84,1.23,1.16,2.38,2,1.16l14.59-21.5c.83-1.23-1.16-2.39-2-1.16Z"/><text class="cls-4" transform="translate(0 42.88)">nunoptica</text></g></g></svg>