<svg xmlns="http://www.w3.org/2000/svg" viewBox="0 0 96.7 45.55"><defs><style>.cls-1,.cls-2{fill:none;stroke:#ec9b3b;stroke-miterlimit:10;}.cls-1{stroke-width:3.73px;}.cls-2{stroke-width:2.24px;}.cls-3{fill:#10c7e5;}</style></defs><title>img_favicon</title><g id="Layer_2" data-name="Layer 2"><g id="Header"><ellipse class="cls-1" cx="21.84" cy="22.78" rx="19.97" ry="20.91"/><ellipse class="cls-1" cx="74.86" cy="22.78" rx="19.97" ry="20.91"/><path class="cls-2" d="M42.56,19s5.79-5.79,11.58,0"/><path class="cls-3" d="M23.49,13.44l-4.86,7.09c-.81,1.19,1.13,2.31,1.94,1.13l4.85-7.09c.82-1.2-1.12-2.32-1.93-1.13Z"/><path class="cls-3" d="M33.94,12.32,19.75,33.22c-.81,1.2,1.13,2.32,1.94,1.13l14.19-20.9c.81-1.2-1.13-2.32-1.94-1.13Z"/><path class="cls-3" d="M74.27,12.32l-4.86,7.09c-.81,1.19,1.13,2.31,1.94,1.13l4.85-7.09c.82-1.2-1.12-2.32-1.93-1.13Z"/><path class="cls-3" d="M84.72,11.2,70.53,32.1c-.81,1.2,1.13,2.32,1.94,1.13l14.18-20.9c.82-1.2-1.12-2.32-1.93-1.13Z"/></g></g></svg>