<svg xmlns="http://www.w3.org/2000/svg" xmlns:xlink="http://www.w3.org/1999/xlink" viewBox="0 0 218.26 255.65"><defs><style>.cls-1{isolation:isolate;}.cls-2{fill:none;}.cls-3{fill:#fda;}.cls-4{fill:#ac9180;}.cls-5{fill:#978072;}.cls-6{fill:#cee7d3;}.cls-7{fill:#7b4c3e;}.cls-8{fill:#8c625b;}.cls-9{fill:#fcca94;}.cls-10{fill:#ffe6c6;}.cls-11{fill:#bb9e8b;}.cls-12{fill:#b4ddc8;}.cls-13{fill:#ebf4e8;}.cls-14,.cls-16{fill:#fff;}.cls-15{fill:#ec9b3b;}.cls-16{font-size:9.78px;}.cls-16,.cls-53{font-family:Nunito-Bold, Nunito;font-weight:700;}.cls-17{letter-spacing:-0.01em;}.cls-18{letter-spacing:0em;}.cls-19,.cls-53{opacity:0.77;}.cls-20{fill:url(#linear-gradient);}.cls-21{fill:#716f70;}.cls-22{fill:url(#linear-gradient-2);}.cls-23{fill:url(#radial-gradient);}.cls-24{fill:url(#linear-gradient-3);}.cls-25{fill:url(#linear-gradient-4);}.cls-26{fill:url(#linear-gradient-5);}.cls-27{fill:#8f94aa;opacity:0.52;mix-blend-mode:color-burn;}.cls-28{fill:url(#linear-gradient-6);}.cls-29{fill:url(#radial-gradient-2);}.cls-30{fill:url(#linear-gradient-7);}.cls-31{fill:url(#linear-gradient-8);}.cls-32{fill:url(#linear-gradient-9);}.cls-33{fill:url(#linear-gradient-10);}.cls-34{fill:#747b97;}.cls-35{fill:#313856;}.cls-36{fill:url(#radial-gradient-3);}.cls-37{fill:url(#linear-gradient-11);}.cls-38{fill:url(#radial-gradient-4);}.cls-39{fill:url(#linear-gradient-12);}.cls-40{fill:url(#radial-gradient-5);}.cls-41{fill:url(#linear-gradient-13);}.cls-42{fill:url(#radial-gradient-6);}.cls-43{fill:#949494;opacity:0.75;mix-blend-mode:screen;}.cls-44{fill:url(#linear-gradient-14);}.cls-45{fill:url(#linear-gradient-15);}.cls-46{fill:url(#linear-gradient-16);}.cls-47{fill:url(#linear-gradient-17);}.cls-48{fill:url(#radial-gradient-7);}.cls-49{fill:url(#radial-gradient-8);}.cls-50{fill:url(#linear-gradient-18);}.cls-51{fill:url(#linear-gradient-19);}.cls-52{fill:url(#linear-gradient-20);}.cls-53{font-size:8.89px;fill:#111d5e;}.cls-54{letter-spacing:0em;}.cls-55{letter-spacing:-0.1em;}</style><linearGradient id="linear-gradient" x1="52.68" y1="101.66" x2="56.29" y2="101.66" gradientUnits="userSpaceOnUse"><stop offset="0" stop-color="#040c2e"/><stop offset="0.18" stop-color="#132848"/><stop offset="0.38" stop-color="#1f3f5e"/><stop offset="0.5" stop-color="#234766"/><stop offset="0.62" stop-color="#204160"/><stop offset="0.77" stop-color="#173151"/><stop offset="0.95" stop-color="#091537"/><stop offset="1" stop-color="#040c2e"/></linearGradient><linearGradient id="linear-gradient-2" x1="61.07" y1="107.74" x2="61.07" y2="100.69" gradientUnits="userSpaceOnUse"><stop offset="0" stop-color="#fff"/><stop offset="1" stop-color="#ccccd1"/></linearGradient><radialGradient id="radial-gradient" cx="61.07" cy="105.38" r="5.06" gradientUnits="userSpaceOnUse"><stop offset="0" stop-color="#fff"/><stop offset="1" stop-color="#c0ccd1"/></radialGradient><linearGradient id="linear-gradient-3" x1="55.69" y1="101.6" x2="66.98" y2="101.6" xlink:href="#linear-gradient"/><linearGradient id="linear-gradient-4" x1="62.24" y1="100.9" x2="62.24" y2="96.35" gradientUnits="userSpaceOnUse"><stop offset="0" stop-color="#000624"/><stop offset="0.32" stop-color="#0b1c39"/><stop offset="0.74" stop-color="#16334f"/><stop offset="1" stop-color="#1a3b57"/></linearGradient><linearGradient id="linear-gradient-5" x1="110.22" y1="221.82" x2="110.22" y2="221.37" gradientTransform="matrix(1, 0.08, -0.08, 1, -24.97, -128.76)" gradientUnits="userSpaceOnUse"><stop offset="0" stop-color="#fff"/><stop offset="0.09" stop-color="#d9dfe4"/><stop offset="0.23" stop-color="#a5b4c0"/><stop offset="0.34" stop-color="#8094a6"/><stop offset="0.44" stop-color="#688196"/><stop offset="0.5" stop-color="#607a90"/><stop offset="0.56" stop-color="#667f94"/><stop offset="0.65" stop-color="#768da0"/><stop offset="0.74" stop-color="#92a4b3"/><stop offset="0.85" stop-color="#b8c3cd"/><stop offset="0.95" stop-color="#e8ecef"/><stop offset="1" stop-color="#fff"/></linearGradient><linearGradient id="linear-gradient-6" x1="2918.21" y1="107.74" x2="2918.21" y2="100.69" gradientTransform="matrix(-1, 0, 0, 1, 2966.11, 0)" xlink:href="#linear-gradient-2"/><radialGradient id="radial-gradient-2" cx="2918.21" cy="105.38" r="5.06" gradientTransform="matrix(-1, 0, 0, 1, 2966.11, 0)" xlink:href="#radial-gradient"/><linearGradient id="linear-gradient-7" x1="2912.83" y1="101.6" x2="2924.12" y2="101.6" gradientTransform="matrix(-1, 0, 0, 1, 2966.11, 0)" xlink:href="#linear-gradient"/><linearGradient id="linear-gradient-8" x1="2919.38" y1="100.9" x2="2919.38" y2="96.35" gradientTransform="matrix(-1, 0, 0, 1, 2966.11, 0)" xlink:href="#linear-gradient-4"/><linearGradient id="linear-gradient-9" x1="2957.16" y1="-18.17" x2="2957.16" y2="-18.61" gradientTransform="matrix(-1, 0.08, 0.08, 1, 2991.08, -128.76)" xlink:href="#linear-gradient-5"/><linearGradient id="linear-gradient-10" x1="-183.91" y1="37.6" x2="-183.91" y2="30.31" gradientTransform="translate(229.55)" gradientUnits="userSpaceOnUse"><stop offset="0.01" stop-color="#ba8325"/><stop offset="0.24" stop-color="#c89329"/><stop offset="0.72" stop-color="#e1b030"/><stop offset="1" stop-color="#eabb33"/></linearGradient><radialGradient id="radial-gradient-3" cx="49.7" cy="39.31" r="4.75" gradientUnits="userSpaceOnUse"><stop offset="0.01" stop-color="#5f1b0b"/><stop offset="0.28" stop-color="#874816"/><stop offset="0.61" stop-color="#b07721"/><stop offset="0.86" stop-color="#c99428"/><stop offset="1" stop-color="#d39f2b"/></radialGradient><linearGradient id="linear-gradient-11" x1="49.7" y1="43.18" x2="49.7" y2="35.44" gradientUnits="userSpaceOnUse"><stop offset="0" stop-color="#efb649"/><stop offset="0.22" stop-color="#e4ab43"/><stop offset="0.6" stop-color="#c88e33"/><stop offset="0.99" stop-color="#a56a1e"/></linearGradient><radialGradient id="radial-gradient-4" cx="49.67" cy="41.24" r="5.27" xlink:href="#radial-gradient"/><linearGradient id="linear-gradient-12" x1="3087.26" y1="37.6" x2="3087.26" y2="30.31" gradientTransform="matrix(-1, 0, 0, 1, 3154.88, 0)" xlink:href="#linear-gradient-10"/><radialGradient id="radial-gradient-5" cx="3320.88" cy="39.31" r="4.75" gradientTransform="matrix(-1, 0, 0, 1, 3384.44, 0)" xlink:href="#radial-gradient-3"/><linearGradient id="linear-gradient-13" x1="3320.88" y1="43.18" x2="3320.88" y2="35.44" gradientTransform="matrix(-1, 0, 0, 1, 3384.44, 0)" xlink:href="#linear-gradient-11"/><radialGradient id="radial-gradient-6" cx="3320.84" cy="41.24" r="5.27" gradientTransform="matrix(-1, 0, 0, 1, 3384.44, 0)" xlink:href="#radial-gradient"/><linearGradient id="linear-gradient-14" x1="3120.38" y1="67.58" x2="3120.38" y2="61.7" gradientTransform="matrix(-1, 0, 0, 1, 3168.38, 0)" gradientUnits="userSpaceOnUse"><stop offset="0" stop-color="#000004"/><stop offset="0.33" stop-color="#000c1c"/><stop offset="0.74" stop-color="#001933"/><stop offset="1" stop-color="#001d3b"/></linearGradient><linearGradient id="linear-gradient-15" x1="3577.22" y1="75.35" x2="3577.22" y2="65.97" gradientTransform="matrix(-1, 0, 0, 1, 3640.54, 0)" gradientUnits="userSpaceOnUse"><stop offset="0" stop-color="#eabb33"/><stop offset="0.28" stop-color="#e1b030"/><stop offset="0.76" stop-color="#c89329"/><stop offset="0.99" stop-color="#ba8325"/></linearGradient><linearGradient id="linear-gradient-16" x1="49.84" y1="75.35" x2="49.84" y2="65.97" gradientTransform="matrix(1, 0, 0, 1, 0, 0)" xlink:href="#linear-gradient-15"/><linearGradient id="linear-gradient-17" x1="42.51" y1="67.83" x2="70.65" y2="67.83" xlink:href="#linear-gradient"/><radialGradient id="radial-gradient-7" cx="3422.73" cy="72.58" r="6.09" gradientTransform="matrix(-1, 0, 0, 1, 3486.21, 0)" xlink:href="#linear-gradient-2"/><radialGradient id="radial-gradient-8" cx="-104.64" cy="72.58" r="6.09" gradientTransform="translate(154.32)" xlink:href="#linear-gradient-2"/><linearGradient id="linear-gradient-18" x1="43.31" y1="67.93" x2="43.31" y2="67.52" gradientUnits="userSpaceOnUse"><stop offset="0" stop-color="#fff"/><stop offset="0.03" stop-color="#fdfaef"/><stop offset="0.16" stop-color="#f7e3ac"/><stop offset="0.27" stop-color="#f1d278"/><stop offset="0.37" stop-color="#edc653"/><stop offset="0.45" stop-color="#ebbe3b"/><stop offset="0.5" stop-color="#eabb33"/><stop offset="0.55" stop-color="#ebbd39"/><stop offset="0.63" stop-color="#ecc249"/><stop offset="0.71" stop-color="#efcc65"/><stop offset="0.8" stop-color="#f3d88b"/><stop offset="0.89" stop-color="#f8e9bc"/><stop offset="0.99" stop-color="#fefcf7"/><stop offset="1" stop-color="#fff"/></linearGradient><linearGradient id="linear-gradient-19" x1="-406.99" y1="67.58" x2="-406.99" y2="61.7" gradientTransform="translate(472.16)" xlink:href="#linear-gradient-14"/><linearGradient id="linear-gradient-20" x1="3570.68" y1="67.93" x2="3570.68" y2="67.52" gradientTransform="matrix(1, 0, 0, -1, -3500.83, 135.45)" xlink:href="#linear-gradient-18"/></defs><title>comprar</title><g class="cls-1"><g id="Layer_2" data-name="Layer 2"><g id="Section_1" data-name="Section 1"><path class="cls-2" d="M21.68,164.49a10.19,10.19,0,0,1-1.23.35,12.54,12.54,0,0,1,1.24.54C21.69,165.08,21.69,164.79,21.68,164.49Z"/><path class="cls-3" d="M.81,102.34c.27,6.79,10.54,12.59,20.54,15.55,0-8.43-.05-17-.06-25.27A26.31,26.31,0,0,0,17,91.68a28.92,28.92,0,0,0-3.18-.18c-4.63,0-8.26,1.22-10.49,3.55A9.57,9.57,0,0,0,.81,102.34Z"/><path class="cls-4" d="M133.29,87.49c-.31-36.56-.58-68.14-.28-71.62.68-7.83-5-13.51-9.35-14.6C122.42,1,115.17.8,102.1.8,88.54.8,70.78,1,56.51,1.1c-10.14.1-18.89.18-23.62.18-4.5,0-9.65,4.7-10.34,15-.41,6.24-.59,56.25-.41,103.15a16.51,16.51,0,0,1,7,3.35c-.05-6.33-.09-12.8-.13-19.26-.12-23.63-.09-42.71.08-56.7.32-26,1.05-26.42,1.49-26.63,1.83-.92,33.29-1.26,52.69-1.26,11.62,0,22.13.1,29.6.29,13.45.34,13.45.77,13.45,1.32,0,.16,0,1.64,0,4.19.15,13,.6,51.83.81,88.73,2.08.74,4.22,1.54,6.36,2.38C133.45,106.29,133.36,96.68,133.29,87.49ZM90.84,13.8H63.65a2.28,2.28,0,0,1-2-1,3.84,3.84,0,0,1-.57-2.15c0-2.28,1.34-4.82,3.25-4.82H91.2c1.73,0,2.64,2,2.64,4S92.91,13.8,90.84,13.8Zm12.52.72a4.7,4.7,0,1,1,4.7-4.7A4.7,4.7,0,0,1,103.36,14.52Z"/><path class="cls-5" d="M129.91,147.67l-2.65-1.25c0,42.41-.75,42.78-1.18,43-1.22.61-23.73.83-38.56.83h0c-14.77,0-28.42-.17-38.42-.49-18.92-.61-19-1.49-19.11-2.08-.1-.79-.32-13.34-.53-31.19a13.3,13.3,0,0,1-7,7.7c0,.54,0,1.08,0,1.61a12.56,12.56,0,0,1,3.3,2.68,10.05,10.05,0,0,1,2.36,8.28,14.25,14.25,0,0,1-5.34,9.62c.21,10.24.48,16.9.81,17.95,1.87,6,13.39,6.65,17.17,6.87,3.94.23,30.78.82,51.9.82h0c10.81,0,18-.15,21.38-.46,12.28-1.12,18.08-7.66,19.32-12.93.46-2,.5-21.68.38-47.1A10.1,10.1,0,0,0,129.91,147.67ZM91.24,203.59a1.61,1.61,0,0,1-1.6,1.61H63.43a1.61,1.61,0,0,1-1.61-1.61v-6.18a1.61,1.61,0,0,1,1.61-1.6H89.64a1.6,1.6,0,0,1,1.6,1.6Z"/><path class="cls-5" d="M24,142.61A13.2,13.2,0,0,1,28,145.75a9.8,9.8,0,0,1,1.33,2q0-4.27-.09-8.79A12.81,12.81,0,0,1,24,142.61Z"/><path class="cls-6" d="M110.93,110.62c3-1.09,8.83.31,15.42,2.57-.13-24.25-.4-53.93-.8-88.44,0-2.1,0-3.47,0-4-1.93-.62-18.69-1-42.25-1-27.17,0-50.39.52-52.27,1.15-.5,1.05-1.56,11.6-1.18,83.7,0,6.35.08,12.72.13,18.94.2.21.39.42.58.64a9.16,9.16,0,0,1,2.1,7.64A14.53,14.53,0,0,1,30.05,138c0,4.24.09,8.34.13,12.25a9.8,9.8,0,0,1,0,3.29c.22,18.87.45,32.54.55,34,1.71,1.17,24.41,1.95,56.74,1.95h0c21.84,0,36.53-.37,38.11-.72.55-1.63.82-16.41.82-42.67l-1.76-.83c-3-1.4-5.21-2.43-7-3.33-1.83,1.31-14.63,10.2-24.71,10.2a13.49,13.49,0,0,1-4.15-.6c-13.48-4.35-15.49-10.12-15.49-13.18,0-2.79,4.8-4.53,9.89-6.37,3.62-1.31,7.36-2.66,8.51-4.24C95.18,123,103.64,113.27,110.93,110.62Z"/><path class="cls-3" d="M14.24,141a11.74,11.74,0,0,1,2.36-.23,16.54,16.54,0,0,1,6.31,1.35,12.68,12.68,0,0,0,8.91-10.45,8.26,8.26,0,0,0-1.93-7c-2.85-3.38-7.83-4.9-11.49-4.9A11.28,11.28,0,0,0,16,120c-5.23,1.12-6.52,5.57-6.82,8.12C8.57,133.27,10.81,138.82,14.24,141Z"/><path class="cls-3" d="M13.31,163.2a11.47,11.47,0,0,0,2,.76l.44,0a12.7,12.7,0,0,1,2.93.36c5.39-.35,9.75-4.7,10.74-10.84a8.54,8.54,0,0,0-2-7.19C24.65,143,20,141.58,16.6,141.58a10.32,10.32,0,0,0-2.29.24c-4.94,1.1-6.19,5.47-6.5,8C7.13,155.32,9.6,161.33,13.31,163.2Z"/><path class="cls-3" d="M12.79,186.37A8.66,8.66,0,0,0,17,187.49c5.15,0,9.4-4.46,10.34-10.85A9.32,9.32,0,0,0,25.18,169a12.94,12.94,0,0,0-9.44-4.24,9,9,0,0,0-2.06.23c-4.34,1.08-5.52,5.28-5.84,7.68C7.11,178.21,9.37,184.48,12.79,186.37Z"/><path class="cls-7" d="M203.37,234.55c-5.56-7.5-20.32-27.42-20.67-42-.25-10-5.51-26.69-9.35-38.87-1.66-5.24-3.08-9.76-3.8-12.74-2.47-10.23-6.49-14.81-14.82-16.89A124.28,124.28,0,0,1,142,119.3c-2.47-1-5.08-2.09-7.7-3.13-.08-9.53-.16-19.22-.24-28.68-.31-36.54-.58-68.1-.28-71.55.72-8.28-5.32-14.29-10-15.45C122.54.16,115.42,0,102.1,0,88.54,0,70.78.17,56.5.3,46.37.39,37.61.48,32.89.48c-5,0-10.41,4.87-11.14,15.75-.33,5-.51,38.31-.46,75.55a26.74,26.74,0,0,0-4.23-.89,28.56,28.56,0,0,0-3.28-.2c-4.85,0-8.68,1.32-11.07,3.8A10.32,10.32,0,0,0,0,102.37c.29,7.49,11.18,13.41,21.34,16.37v.54a16.55,16.55,0,0,0-3-.29,12.3,12.3,0,0,0-2.57.26c-4.17.89-6.89,4.1-7.45,8.8-.6,5.12,1.51,10.66,4.86,13.23-3.45,1.14-5.7,4.16-6.23,8.42-.71,5.84,2,12.21,5.94,14.21l.59.28h0c-3.56.88-5.85,3.85-6.45,8.36C6.26,178.5,8.66,185,12.4,187.07A9.41,9.41,0,0,0,17,188.29a9.56,9.56,0,0,0,5-1.42c.22,10.09.49,16.65.81,17.69,1.83,5.83,11.09,7,17.89,7.43,2.27.14,12.09.39,24.05.58,7.39,7.53,19.76,18.77,33,23,15.5,4.87,25.55,10.64,29.87,17.13.4.59.93,1.53,1.54,2.69h.89a35.55,35.55,0,0,0-1.76-3.15c-4.43-6.64-14.62-12.52-30.29-17.45-12.76-4-24.73-14.7-32.12-22.16,8.57.13,18.14.23,26.75.23h0c10.83,0,18-.16,21.45-.47,12.71-1.16,18.73-8,20-13.54.47-2,.53-20.85.41-45.92,3,5.46,4.79,13.1,4.79,14.47a.41.41,0,0,0,.81,0c0-2.11-3.76-17.52-9.92-20.42L125,144.49c-3.12-1.45-5.38-2.51-7.22-3.42a.38.38,0,0,0-.41,0c-.18.13-17.94,13-28.34,9.62-9.49-3.06-14.94-7.58-14.94-12.41,0-2.23,5-4,9.36-5.61,3.91-1.41,7.6-2.75,8.89-4.52,3.41-4.69,11.72-14.22,18.83-16.81,5-1.82,19.76,4.24,30.53,8.67a122.9,122.9,0,0,0,12.81,4.83c8.09,2,11.81,6.29,14.23,16.3.72,3,2.15,7.54,3.81,12.8,3.83,12.13,9.07,28.75,9.32,38.64.32,13.11,11.29,29.55,20.82,42.42,2.82,3.8,8.48,11.9,14.56,20.62h1C212.05,246.75,206.24,238.43,203.37,234.55ZM.81,102.34a9.57,9.57,0,0,1,2.48-7.29c2.23-2.33,5.86-3.55,10.49-3.55a28.92,28.92,0,0,1,3.18.18,26.31,26.31,0,0,1,4.33.94c0,8.32,0,16.84.06,25.27C11.35,114.93,1.08,109.13.81,102.34Zm8.37,25.81c.3-2.55,1.59-7,6.82-8.12a11.28,11.28,0,0,1,2.4-.24c3.66,0,8.64,1.52,11.49,4.9a8.26,8.26,0,0,1,1.93,7,12.68,12.68,0,0,1-8.91,10.45,16.54,16.54,0,0,0-6.31-1.35,11.74,11.74,0,0,0-2.36.23C10.81,138.82,8.57,133.27,9.18,128.15Zm20.17,19.6a9.8,9.8,0,0,0-1.33-2A13.2,13.2,0,0,0,24,142.61a12.81,12.81,0,0,0,5.3-3.65Q29.31,143.48,29.35,147.75Zm-16,15.45c-3.71-1.87-6.18-7.88-5.5-13.4.31-2.51,1.56-6.88,6.5-8a10.32,10.32,0,0,1,2.29-.24c3.39,0,8,1.45,10.81,4.69a8.54,8.54,0,0,1,2,7.19c-1,6.14-5.35,10.49-10.74,10.84a12.68,12.68,0,0,0-2.92-.36l-.45,0A11.47,11.47,0,0,1,13.31,163.2Zm8.38,2.18a12.54,12.54,0,0,0-1.24-.54,10.19,10.19,0,0,0,1.23-.35C21.69,164.79,21.69,165.08,21.69,165.38ZM17,187.49a8.66,8.66,0,0,1-4.22-1.12c-3.42-1.89-5.68-8.16-4.95-13.71.32-2.4,1.5-6.6,5.84-7.68a9,9,0,0,1,2.07-.23A12.94,12.94,0,0,1,25.18,169a9.32,9.32,0,0,1,2.17,7.65C26.41,183,22.16,187.49,17,187.49Zm112.9-39.82a10.1,10.1,0,0,1,3.85,3.85c.12,25.42.08,45.15-.38,47.1-1.24,5.27-7,11.81-19.32,12.93-3.38.31-10.57.46-21.38.46h0c-21.12,0-48-.59-51.9-.82-3.78-.22-15.3-.9-17.17-6.87-.33-1-.6-7.71-.81-17.95a14.25,14.25,0,0,0,5.34-9.62,10.05,10.05,0,0,0-2.36-8.28,12.56,12.56,0,0,0-3.3-2.68c0-.53,0-1.07,0-1.61a13.3,13.3,0,0,0,7-7.7c.21,17.85.43,30.4.53,31.19.08.59.19,1.47,19.11,2.08,10,.32,23.65.49,38.42.49h0c14.83,0,37.34-.22,38.56-.83.43-.21,1.16-.58,1.18-43Zm-19-37c-7.29,2.65-15.75,12.33-19.21,17.08-1.15,1.58-4.89,2.93-8.51,4.24-5.09,1.84-9.89,3.58-9.89,6.37,0,3.06,2,8.83,15.49,13.18a13.49,13.49,0,0,0,4.15.6c10.08,0,22.88-8.89,24.71-10.2,1.81.9,4,1.93,7,3.33l1.76.83c0,26.26-.27,41-.82,42.67-1.58.35-16.27.72-38.11.72h0c-32.33,0-55-.78-56.74-1.95-.1-1.45-.33-15.12-.55-34a9.8,9.8,0,0,0,0-3.29c0-3.91-.09-8-.13-12.25a14.53,14.53,0,0,0,2.56-6.15,9.16,9.16,0,0,0-2.1-7.64c-.19-.22-.38-.43-.58-.64-.05-6.22-.1-12.59-.13-18.94-.38-72.1.68-82.65,1.18-83.7,1.88-.63,25.1-1.15,52.27-1.15,23.56,0,40.32.41,42.25,1,0,.52,0,1.89,0,4,.4,34.51.67,64.19.8,88.44C119.76,110.93,113.91,109.53,110.93,110.62Zm16.23,2.85c-.21-36.9-.66-75.75-.81-88.73,0-2.55,0-4,0-4.19,0-.55,0-1-13.45-1.32-7.47-.19-18-.29-29.6-.29-19.4,0-50.86.34-52.69,1.26-.44.21-1.17.58-1.49,26.63-.17,14-.2,33.07-.08,56.7,0,6.46.08,12.93.13,19.26a16.51,16.51,0,0,0-7-3.35c-.18-46.9,0-96.91.41-103.15.69-10.31,5.84-15,10.34-15,4.73,0,13.48-.08,23.62-.18C70.78,1,88.54.8,102.1.8c13.07,0,20.32.16,21.56.47C128,2.36,133.69,8,133,15.87c-.3,3.48,0,35.06.28,71.62.07,9.19.16,18.8.23,28.36C131.38,115,129.24,114.21,127.16,113.47Z"/><path class="cls-8" d="M91.2,6.65H64.37c-1.38,0-2.45,2.15-2.45,4a3,3,0,0,0,.43,1.69,1.49,1.49,0,0,0,1.3.65H90.84C92.36,13,93,11.4,93,9.82S92.35,6.65,91.2,6.65Z"/><path class="cls-7" d="M91.2,5.84H64.37c-1.91,0-3.25,2.54-3.25,4.82a3.84,3.84,0,0,0,.57,2.15,2.28,2.28,0,0,0,2,1H90.84c2.07,0,3-2,3-4S92.93,5.84,91.2,5.84ZM90.84,13H63.65a1.49,1.49,0,0,1-1.3-.65,3,3,0,0,1-.43-1.69c0-1.86,1.07-4,2.45-4H91.2C92.35,6.65,93,8.26,93,9.82S92.36,13,90.84,13Z"/><circle class="cls-8" cx="103.36" cy="9.82" r="3.89"/><path class="cls-7" d="M103.36,5.13a4.7,4.7,0,1,0,4.7,4.69A4.69,4.69,0,0,0,103.36,5.13ZM99.47,9.82a3.89,3.89,0,1,1,3.89,3.89A3.9,3.9,0,0,1,99.47,9.82Z"/><rect class="cls-8" x="62.62" y="196.61" width="27.82" height="7.78" rx="0.8" ry="0.8"/><path class="cls-7" d="M89.64,195.81H63.43a1.61,1.61,0,0,0-1.61,1.6v6.18a1.61,1.61,0,0,0,1.61,1.61H89.64a1.61,1.61,0,0,0,1.6-1.61v-6.18A1.6,1.6,0,0,0,89.64,195.81Zm.8,7.78a.8.8,0,0,1-.8.8H63.43a.8.8,0,0,1-.81-.8v-6.18a.8.8,0,0,1,.81-.8H89.64a.8.8,0,0,1,.8.8Z"/><path class="cls-9" d="M1.64,97.52a10.85,10.85,0,0,0-.83,4.82c.27,6.79,10.54,12.59,20.54,15.55l0-8.21a61.79,61.79,0,0,1-7-2.6A33.35,33.35,0,0,1,1.64,97.52Z"/><path class="cls-9" d="M31.52,133c-1.35.44-2.71.85-4.08,1.15a27.73,27.73,0,0,1-18.22-2.32c.5,3.88,2.41,7.49,5,9.16a11.74,11.74,0,0,1,2.36-.23,16.54,16.54,0,0,1,6.31,1.35A12.51,12.51,0,0,0,31.52,133Z"/><path class="cls-9" d="M29.17,154.65a24.32,24.32,0,0,1-17.63.73,19.51,19.51,0,0,1-3.74-1.87c.49,4.29,2.63,8.24,5.51,9.69a11.47,11.47,0,0,0,2,.76l.44,0a12.7,12.7,0,0,1,2.93.36C23.7,164,27.84,160.15,29.17,154.65Z"/><path class="cls-9" d="M26.7,179.4A17.08,17.08,0,0,1,22,180.64a16.61,16.61,0,0,1-14.26-6c0,5,2.08,10.05,5.09,11.71A8.66,8.66,0,0,0,17,187.49C21.38,187.49,25.1,184.28,26.7,179.4Z"/><path class="cls-9" d="M114.09,125.6c-1.33.84-2.44,2-3.68,3s-2.69,1.77-3.94,2.78c-.22.18,0,.53.27.46a16.68,16.68,0,0,0,4.3-2.16,14.37,14.37,0,0,0,3.91-3.19C115.34,126,114.59,125.29,114.09,125.6Z"/><path class="cls-9" d="M115.58,122.38a9.9,9.9,0,0,0-1.54.74,7.73,7.73,0,0,0-1.59,1.06.48.48,0,0,0,.46.8,7.48,7.48,0,0,0,1.55-.71,11.24,11.24,0,0,0,1.52-.93C116.42,123,116.17,122.14,115.58,122.38Z"/><path class="cls-9" d="M140.76,204.15A78.94,78.94,0,0,0,132,215.62a.45.45,0,0,0,.7.54A78.31,78.31,0,0,0,141.8,205,.66.66,0,0,0,140.76,204.15Z"/><path class="cls-9" d="M144.23,203.53a26.2,26.2,0,0,0-1.91,3.73c-.27.55.54,1.05.84.49a26.79,26.79,0,0,0,1.92-3.87C145.25,203.36,144.51,203.12,144.23,203.53Z"/><path class="cls-9" d="M158.39,215.09c-1.52,1.86-3,3.76-4.49,5.63-1.37,1.71-3,3.28-4.19,5.1-.2.3.2.7.49.49,3.67-2.55,6.82-6.69,9.24-10.41C159.84,215.27,158.87,214.5,158.39,215.09Z"/><path class="cls-9" d="M163.79,214.33a16.22,16.22,0,0,0-3.09,4.81.56.56,0,0,0,.93.54,33,33,0,0,0,3.12-4.61C165.1,214.49,164.24,213.8,163.79,214.33Z"/><path class="cls-9" d="M148.45,254.47a.27.27,0,0,0-.4.23v.1a.12.12,0,0,0,.11.14l.08,0s0,0,.06,0a1,1,0,0,0,0,.48h1A2.27,2.27,0,0,0,148.45,254.47Z"/><path class="cls-9" d="M17.45,106a10.65,10.65,0,0,0-5.29-2.14.34.34,0,0,0-.18.64,24.44,24.44,0,0,0,2.35,1c.9.4,1.77.86,2.68,1.25A.44.44,0,0,0,17.45,106Z"/><path class="cls-9" d="M17.78,103.94a3.65,3.65,0,0,1-1.5-.22.33.33,0,0,0-.33.57,2.09,2.09,0,0,0,1.92.27A.32.32,0,0,0,17.78,103.94Z"/><path class="cls-9" d="M29,130.75a16.34,16.34,0,0,1-5.46,1.93c-.57.09-.39.92.13.95a8.44,8.44,0,0,0,6-2C30.11,131.17,29.51,130.46,29,130.75Z"/><path class="cls-9" d="M28.54,128.62a3.31,3.31,0,0,1-1.75,1c-.33.07-.26.64.09.6A2.75,2.75,0,0,0,29,129,.27.27,0,0,0,28.54,128.62Z"/><path class="cls-9" d="M25.19,152.88c-2.67.38-5.26,1.09-8,1.35a.25.25,0,0,0,0,.5,15.93,15.93,0,0,0,8.29-1C26,153.46,25.63,152.82,25.19,152.88Z"/><path class="cls-9" d="M23.4,178.63c-.76-.08-1.52-.09-2.29-.15s-1.49-.21-2.24-.25a.29.29,0,0,0-.15.54,6.65,6.65,0,0,0,4.79.63C24,179.29,23.82,178.68,23.4,178.63Z"/><path class="cls-9" d="M24.64,177.12a1.64,1.64,0,0,1-1.37-.08.22.22,0,0,0-.27.34,1.36,1.36,0,0,0,1.86.12A.22.22,0,0,0,24.64,177.12Z"/><path class="cls-10" d="M106.36,116a21.73,21.73,0,0,0-5.24,4.56c-1.48,1.69-3.19,3.76-3.81,5.94a.41.41,0,0,0,.68.39c1.58-1.55,2.75-3.56,4.24-5.22s3.24-3.16,4.84-4.75A.59.59,0,0,0,106.36,116Z"/><path class="cls-10" d="M111.35,115c-.67.14-1.35.18-2,.26-.34,0-.61.56-.2.75a2.71,2.71,0,0,0,2.57-.21A.44.44,0,0,0,111.35,115Z"/><path class="cls-10" d="M176.49,172.59c-.74-4.1-2.36-8.05-3.59-12s-2.16-8.12-3.65-12c-.16-.4-.88-.39-.82.11A89,89,0,0,0,171.25,161c1.09,4.08,2,8.33,3.92,12.12C175.56,173.92,176.63,173.34,176.49,172.59Z"/><path class="cls-10" d="M177.29,175.67a.52.52,0,0,0-1,0,8.42,8.42,0,0,0,.71,4.49.43.43,0,0,0,.8-.22C177.65,178.51,177.33,177.1,177.29,175.67Z"/><path class="cls-10" d="M206.88,244.58c-1.79-2.64-3.71-5.17-5.68-7.69-2.28-2.91-5.19-5.77-6.28-9.36a.28.28,0,0,0-.55.07c-.2,3.09,2.69,5.91,4.38,8.22,2.35,3.21,4.68,6.4,7.25,9.45C206.41,245.76,207.24,245.11,206.88,244.58Z"/><path class="cls-10" d="M211.16,251.47c-.25-.37-.48-.75-.75-1.11A1.89,1.89,0,0,1,210,249c.06-.58-.88-.69-1-.13-.35,1.39.52,2.46,1.62,3.19C210.93,252.29,211.41,251.82,211.16,251.47Z"/><path class="cls-10" d="M12.66,93.13a18.52,18.52,0,0,0-6.12,1.55.51.51,0,0,0,.26.94,17.75,17.75,0,0,0,6-1.44C13.31,94,13.31,93.07,12.66,93.13Z"/><path class="cls-10" d="M17.83,93.28A4,4,0,0,0,17,93l-.86-.1c-.37,0-.43.54-.09.63l.85.22a3.91,3.91,0,0,0,.84,0C18.09,93.85,18.12,93.38,17.83,93.28Z"/><path class="cls-10" d="M21,121.3a25.41,25.41,0,0,0-6.25.94.36.36,0,0,0,.09.7,25.58,25.58,0,0,0,6.28-.76A.45.45,0,0,0,21,121.3Z"/><path class="cls-10" d="M18.57,143.9a10.64,10.64,0,0,0-6.4,1.61.38.38,0,0,0,.29.68c1-.24,2-.62,3.08-.85s2.12-.28,3.16-.52C19.25,144.7,19.07,144,18.57,143.9Z"/><path class="cls-10" d="M21.14,167.9a8.23,8.23,0,0,0-6.08-.92.13.13,0,0,0,0,.26,24.49,24.49,0,0,1,5.8,1.24C21.24,168.61,21.45,168.08,21.14,167.9Z"/><path class="cls-5" d="M127.16,113.47c2.08.74,4.22,1.54,6.36,2.38-.07-9.56-.16-19.17-.23-28.36-.09-10-.17-19.59-.24-28.36q-3.12,2.1-6.29,4.17C126.91,78.56,127.06,96.23,127.16,113.47Z"/><path class="cls-5" d="M22.14,119.44a16.51,16.51,0,0,1,7,3.35C29.07,117,29,111.11,29,105.21c-2.29.34-4.59.61-6.9.79C22.11,110.48,22.13,115,22.14,119.44Z"/><path class="cls-11" d="M41.81,3C38.45,2.37,34,2.43,30.87,4c-3,1.49-4.33,4.41-5,7.53a.36.36,0,0,0,.66.28c1.59-2.47,2.9-5,5.82-6.08S38.75,5,41.81,4.6C42.62,4.49,42.58,3.16,41.81,3Z"/><path class="cls-12" d="M69.06,126.75c-11,3.43-22.69,3.78-34.19,3.52-.71,0-1.42,0-2.12-.06a9.7,9.7,0,0,1-.14,1.6A14.53,14.53,0,0,1,30.05,138c0,4.24.09,8.34.13,12.25a9.8,9.8,0,0,1,0,3.29c.22,18.87.45,32.54.55,34,1.71,1.17,24.41,1.95,56.74,1.95h0c21.84,0,36.53-.37,38.11-.72.55-1.63.82-16.41.82-42.67l-1.76-.83c-3-1.4-5.21-2.43-7-3.33-1.83,1.31-14.63,10.2-24.71,10.2a13.49,13.49,0,0,1-4.15-.6c-13.48-4.35-15.49-10.12-15.49-13.18,0-2.79,4.8-4.53,9.89-6.37,3.62-1.31,7.36-2.66,8.51-4.24,3.46-4.75,11.92-14.43,19.21-17.08,3-1.09,8.83.31,15.42,2.57q-.06-11-.16-23.49-12.18,9.8-24.83,19C91.33,116,80.89,123.06,69.06,126.75Z"/><path class="cls-13" d="M36.63,25.2a.58.58,0,0,0-1,0c-.93,1.69-.85,3.95-1,5.84-.16,2.64-.3,5.27-.46,7.91-.27,4.75-1.24,9.83-.57,14.56.19,1.29,2.06,1.07,2.39,0,1.4-4.53,1-9.85,1.2-14.56.08-2.37.13-4.74.13-7.12C37.36,29.71,37.62,27.13,36.63,25.2Z"/><path class="cls-13" d="M35.05,64.63c0-1.55.43-3,.45-4.59a.81.81,0,0,0-1.5-.41,12.11,12.11,0,0,0-.78,9.9.94.94,0,0,0,1.83-.25C35.09,67.73,35,66.18,35.05,64.63Z"/><circle class="cls-14" cx="77.73" cy="177.81" r="7.5" transform="translate(-113.18 212.61) rotate(-76.72)"/><circle class="cls-14" cx="58.99" cy="177.81" r="6.16" transform="translate(-108.45 93.79) rotate(-45)"/><circle class="cls-14" cx="42.4" cy="177.81" r="6.16" transform="translate(-140.4 178.22) rotate(-76.72)"/><circle class="cls-14" cx="112.53" cy="177.81" r="6.16" transform="translate(-81.01 260.4) rotate(-80.78)"/><circle class="cls-14" cx="95.93" cy="177.81" r="6.16" transform="translate(-97.63 119.91) rotate(-45)"/><rect class="cls-15" x="44.67" y="135.9" width="64.95" height="19.49" rx="9.09" ry="9.09"/><text class="cls-16" transform="translate(57.48 148.47)"><tspan class="cls-17">C</tspan><tspan x="6.54" y="0">omp</tspan><tspan class="cls-18" x="26.58" y="0">r</tspan><tspan x="30.31" y="0">ar</tspan></text><g id="_Group_" data-name="&lt;Group&gt;" class="cls-19"><path id="_Path_" data-name="&lt;Path&gt;" class="cls-20" d="M56,102.31a.28.28,0,0,1-.27-.28c0-.12-.26-.47-1.26-.47s-1.24.35-1.26.48a.27.27,0,0,1-.28.25.26.26,0,0,1-.26-.26s0-1,1.8-1,1.81,1,1.81,1A.29.29,0,0,1,56,102.31Z"/><path id="_Path_2" data-name="&lt;Path&gt;" class="cls-21" d="M61.2,107.86a6.37,6.37,0,0,1-3.27-.76c-1.93-1.23-2.11-4-1.78-5.11.39-1.32,3.64-1.42,4.62-1.42,1.88,0,4.17.31,4.75.88.83.84.92,3.85-.46,5.24a5.77,5.77,0,0,1-3.86,1.17Z"/><path id="_Path_3" data-name="&lt;Path&gt;" class="cls-22" d="M56.27,102c-.35,1.16-.1,3.82,1.73,5s5.59,1,7-.4,1.23-4.3.47-5.06C64.42,100.52,56.83,100.13,56.27,102Z"/><path id="_Path_4" data-name="&lt;Path&gt;" class="cls-23" d="M56.33,102.05C56,103.2,56.24,105.81,58,107s5.51,1,6.87-.39,1.22-4.24.46-5C64.37,100.57,56.89,100.18,56.33,102.05Z"/><path id="_Path_5" data-name="&lt;Path&gt;" class="cls-24" d="M57.59,100.49c-1.08.27-1.72.71-1.89,1.29a.73.73,0,0,0,.45.87l.12-.63c.1-.36.63-.74,1.47-1,2.59-.66,7.08-.15,7.73.5a2.82,2.82,0,0,1,.51,1.49l0,0a.24.24,0,0,0,.29,0c.62-.44.68-1,.69-2.22a.24.24,0,0,0-.19-.23A21.57,21.57,0,0,0,57.59,100.49Z"/><path id="_Path_6" data-name="&lt;Path&gt;" class="cls-25" d="M66.91,100.71a21.24,21.24,0,0,0-2.28-2.62,4.79,4.79,0,0,0-4.13-1.72,5.47,5.47,0,0,0-2.82,1.09c-.28.28,0,.88.39.79s1.69-1.58,2.92-1.19c1.62.52,2.33,2.11,3.85,3.26q1,.14,2,.33A.23.23,0,0,1,66.91,100.71Z"/><path id="_Path_7" data-name="&lt;Path&gt;" class="cls-26" d="M66.77,101.36c0,.13-.25.2-.54.18s-.52-.14-.51-.27.25-.2.54-.17S66.78,101.24,66.77,101.36Z"/><path id="_Path_8" data-name="&lt;Path&gt;" class="cls-27" d="M61.33,103.81a11.06,11.06,0,0,1-5-1.06,3.13,3.13,0,0,1,.11-.66c.22-.74,1.87-1.2,4.3-1.2,2,0,4,.35,4.49.79a2.41,2.41,0,0,1,.48,1.33A11.84,11.84,0,0,1,61.33,103.81Z"/><path id="_Path_9" data-name="&lt;Path&gt;" class="cls-21" d="M47.77,107.86A6.43,6.43,0,0,0,51,107.1c1.93-1.23,2.11-4,1.78-5.11-.39-1.32-3.64-1.42-4.63-1.42-1.87,0-4.17.31-4.74.88-.84.84-.92,3.85.46,5.24a5.73,5.73,0,0,0,3.86,1.17Z"/><path id="_Path_10" data-name="&lt;Path&gt;" class="cls-28" d="M52.7,102c.34,1.16.1,3.82-1.73,5s-5.59,1-7-.4-1.23-4.3-.47-5.06C44.55,100.52,52.14,100.13,52.7,102Z"/><path id="_Path_11" data-name="&lt;Path&gt;" class="cls-29" d="M52.63,102.05c.34,1.15.1,3.76-1.7,4.91s-5.52,1-6.88-.39-1.21-4.24-.46-5C44.6,100.57,52.08,100.18,52.63,102.05Z"/><path id="_Path_12" data-name="&lt;Path&gt;" class="cls-30" d="M51.38,100.49c1.08.27,1.71.71,1.89,1.29a.74.74,0,0,1-.46.87L52.7,102c-.1-.36-.64-.74-1.47-1-2.59-.66-7.08-.15-7.73.5a2.74,2.74,0,0,0-.51,1.49l0,0a.24.24,0,0,1-.29,0c-.62-.44-.69-1-.69-2.22a.24.24,0,0,1,.18-.23A21.62,21.62,0,0,1,51.38,100.49Z"/><path id="_Path_13" data-name="&lt;Path&gt;" class="cls-31" d="M42.06,100.71a20.38,20.38,0,0,1,2.28-2.62,4.79,4.79,0,0,1,4.13-1.72,5.47,5.47,0,0,1,2.82,1.09c.28.28,0,.88-.4.79S49.2,96.67,48,97.06c-1.63.52-2.33,2.11-3.85,3.26-.65.09-1.3.2-2,.33A.24.24,0,0,0,42.06,100.71Z"/><path id="_Path_14" data-name="&lt;Path&gt;" class="cls-32" d="M42.2,101.36c0,.13.25.2.54.18s.52-.14.51-.27-.25-.2-.55-.17S42.18,101.24,42.2,101.36Z"/><path id="_Path_15" data-name="&lt;Path&gt;" class="cls-27" d="M47.63,103.81a11.08,11.08,0,0,0,5-1.06,3.94,3.94,0,0,0-.11-.66c-.22-.74-1.87-1.2-4.3-1.2-2,0-4,.35-4.49.79a2.41,2.41,0,0,0-.48,1.33A11.79,11.79,0,0,0,47.63,103.81Z"/></g><g id="_Group_2" data-name="&lt;Group&gt;" class="cls-19"><path id="_Path_16" data-name="&lt;Path&gt;" class="cls-33" d="M43.49,37.41a24.32,24.32,0,0,1,3.92-7.1l.38.25a27.33,27.33,0,0,0-3.71,7Z"/><path id="_Path_17" data-name="&lt;Path&gt;" class="cls-34" d="M44.12,37.65a.36.36,0,0,0-.72,0s0,0,0,0h0c0,.47.15.86,1.29,1.11l.07-.81A.8.8,0,0,1,44.12,37.65Z"/><path id="_Path_18" data-name="&lt;Path&gt;" class="cls-35" d="M47.37,30.23a5.82,5.82,0,0,1,1-.91,1.48,1.48,0,0,1,1.64.14,4,4,0,0,1,1.11.83c.24.24,0,1-.26,1S49.3,29,48.6,29.65c-.26.27-.74.94-.74.94s-.08.09-.31,0A.33.33,0,0,1,47.37,30.23Z"/><path id="_Path_19" data-name="&lt;Path&gt;" class="cls-36" d="M49.7,43.36c-3,0-5.36-1.82-5.36-4s2.4-4,5.36-4,5.37,1.81,5.37,4S52.67,43.36,49.7,43.36Z"/><ellipse id="_Path_20" data-name="&lt;Path&gt;" class="cls-37" cx="49.7" cy="39.31" rx="5.14" ry="3.87"/><ellipse id="_Path_21" data-name="&lt;Path&gt;" class="cls-38" cx="49.7" cy="39.31" rx="4.98" ry="3.71"/><path id="_Path_22" data-name="&lt;Path&gt;" class="cls-27" d="M49.7,39.65a19.88,19.88,0,0,1-4.83-.56c.15-1.9,2.25-3.37,4.83-3.37s4.69,1.47,4.84,3.37A19.9,19.9,0,0,1,49.7,39.65Z"/><path id="_Path_23" data-name="&lt;Path&gt;" class="cls-39" d="M69.77,37.41a24.07,24.07,0,0,0-3.91-7.1l-.38.25a27.33,27.33,0,0,1,3.71,7Z"/><path id="_Path_24" data-name="&lt;Path&gt;" class="cls-34" d="M69.15,37.65a.36.36,0,1,1,.72,0s0,0,0,0h0c0,.47-.15.86-1.29,1.11L68.51,38A.8.8,0,0,0,69.15,37.65Z"/><path id="_Path_25" data-name="&lt;Path&gt;" class="cls-35" d="M65.89,30.23a5.64,5.64,0,0,0-1-.91,1.49,1.49,0,0,0-1.64.14,3.81,3.81,0,0,0-1.11.83c-.24.24,0,1,.26,1S64,29,64.66,29.65a10,10,0,0,1,.74.94s.09.09.32,0A.33.33,0,0,0,65.89,30.23Z"/><path id="_Path_26" data-name="&lt;Path&gt;" class="cls-40" d="M58.19,39.31c0-2.23,2.41-4,5.37-4s5.37,1.81,5.37,4-2.41,4-5.37,4S58.19,41.54,58.19,39.31Z"/><ellipse id="_Path_27" data-name="&lt;Path&gt;" class="cls-41" cx="63.56" cy="39.31" rx="5.14" ry="3.87"/><ellipse id="_Path_28" data-name="&lt;Path&gt;" class="cls-42" cx="63.56" cy="39.31" rx="4.98" ry="3.71"/><path id="_Path_29" data-name="&lt;Path&gt;" class="cls-27" d="M63.56,39.65a19.9,19.9,0,0,0,4.84-.56c-.16-1.9-2.25-3.37-4.84-3.37s-4.68,1.47-4.84,3.37A19.9,19.9,0,0,0,63.56,39.65Z"/><path id="_Path_30" data-name="&lt;Path&gt;" class="cls-34" d="M58.19,39.45a.16.16,0,0,1-.16-.16v-.9c0-.16-.25-.62-1.4-.62s-1.4.46-1.4.62v.9a.16.16,0,0,1-.16.16.16.16,0,0,1-.15-.16v-.9s0-.93,1.71-.93,1.72.93,1.72.93v.9A.16.16,0,0,1,58.19,39.45Z"/><path id="_Path_31" data-name="&lt;Path&gt;" class="cls-43" d="M56.63,37.6c1.34,0,1.63.58,1.7.83,0-.14-.16-.92-1.7-.92s-1.68.78-1.69.92C55,38.18,55.3,37.6,56.63,37.6Z"/><path id="_Path_32" data-name="&lt;Path&gt;" class="cls-34" d="M61.91,35.58H51.36a.16.16,0,0,1-.16-.16.16.16,0,0,1,.16-.15H61.91a.16.16,0,0,1,.16.15A.16.16,0,0,1,61.91,35.58Z"/><path id="_Path_33" data-name="&lt;Path&gt;" class="cls-43" d="M61.68,35.39H51.58c-.08,0-.15,0-.15,0s.07,0,.15,0h10.1c.09,0,.15,0,.15,0S61.77,35.39,61.68,35.39Z"/></g><g id="_Group_3" data-name="&lt;Group&gt;" class="cls-19"><path id="_Path_34" data-name="&lt;Path&gt;" class="cls-44" d="M53.17,64c-.23,0-1.51-1.91-3.76-1.54S47,64.39,46.72,64.51a4.77,4.77,0,0,0-2.59,2.42,1.41,1.41,0,0,1-1.62.26,14.37,14.37,0,0,1,2.75-3.39c1.84-1.84,3.32-2.21,5-2.07a5.28,5.28,0,0,1,3,1.15C53.63,63.22,53.48,64,53.17,64Z"/><path id="_Path_35" data-name="&lt;Path&gt;" class="cls-45" d="M56.88,66h9.47a3.15,3.15,0,0,1,3.4,3.16,8.32,8.32,0,0,1-2.37,5.15,4.48,4.48,0,0,1-3.19,1.07h0a5.24,5.24,0,0,1-3.95-1.44c-1.58-1.78-1.66-4.37-1.88-5.67A1.31,1.31,0,0,0,56.88,67Z"/><path id="_Path_36" data-name="&lt;Path&gt;" class="cls-46" d="M56.28,66H46.81a3.15,3.15,0,0,0-3.4,3.16,8.32,8.32,0,0,0,2.37,5.15A4.48,4.48,0,0,0,49,75.35h0a5.24,5.24,0,0,0,4-1.44c1.58-1.78,1.66-4.37,1.88-5.67A1.31,1.31,0,0,1,56.28,67Z"/><path id="_Path_37" data-name="&lt;Path&gt;" class="cls-47" d="M69.17,66.81a3.78,3.78,0,0,0-2.82-1.14H46.81A3.78,3.78,0,0,0,44,66.81c-.29.3-1.48.11-1.48.38,0,1.44.56,1.51.6,2,0,.75.32.85.41.85h11c.94,0-.23-2.67,2-2.67s1.08,2.67,2,2.67h11c.09,0,.36-.1.41-.85,0-.45.6-.52.6-2C70.65,66.92,69.46,67.11,69.17,66.81Z"/><path id="_Path_38" data-name="&lt;Path&gt;" class="cls-43" d="M49,75a4.21,4.21,0,0,1-2.95-1,6.63,6.63,0,0,1-1.88-5.43c.37-1.35,1.56-1.88,4.37-2l1,0c2.91,0,4.25.4,4.47,2.72a5.92,5.92,0,0,1-1.31,4.33A5,5,0,0,1,49,75Z"/><path id="_Path_39" data-name="&lt;Path&gt;" class="cls-43" d="M64.19,75a4.21,4.21,0,0,0,3-1A6.63,6.63,0,0,0,69,68.62c-.37-1.35-1.56-1.88-4.37-2l-1,0c-2.91,0-4.25.4-4.47,2.72a5.92,5.92,0,0,0,1.31,4.33A5,5,0,0,0,64.19,75Z"/><path id="_Path_40" data-name="&lt;Path&gt;" class="cls-48" d="M60.61,73.6a5.74,5.74,0,0,1-1.27-4.22c.21-2.3,1.47-2.65,5.31-2.56,2.82.07,3.88.61,4.22,1.84A6.53,6.53,0,0,1,67,73.94C65.58,75.39,61.78,75,60.61,73.6Z"/><path id="_Path_41" data-name="&lt;Path&gt;" class="cls-27" d="M59.51,70.9a64.51,64.51,0,0,0,9.28-1,3.52,3.52,0,0,0,0-1.24c-.29-1-1.08-1.67-4.12-1.75h-1c-3.11,0-4,.53-4.19,2.47A5.82,5.82,0,0,0,59.51,70.9Z"/><path id="_Path_42" data-name="&lt;Path&gt;" class="cls-49" d="M52.55,73.6a5.74,5.74,0,0,0,1.27-4.22c-.22-2.3-1.48-2.65-5.31-2.56-2.83.07-3.88.61-4.22,1.84a6.53,6.53,0,0,0,1.84,5.28C47.58,75.39,51.38,75,52.55,73.6Z"/><path id="_Path_43" data-name="&lt;Path&gt;" class="cls-27" d="M53.65,70.9a64.81,64.81,0,0,1-9.29-1,3.48,3.48,0,0,1,0-1.24c.29-1,1.08-1.67,4.11-1.75h1c3.11,0,4,.53,4.19,2.47A5.82,5.82,0,0,1,53.65,70.9Z"/><rect id="_Rectangle_" data-name="&lt;Rectangle&gt;" class="cls-50" x="42.79" y="67.52" width="1.03" height="0.41"/><path id="_Path_44" data-name="&lt;Path&gt;" class="cls-51" d="M60,64c.23,0,1.51-1.91,3.76-1.54s2.39,1.93,2.69,2.05A4.77,4.77,0,0,1,69,66.93a1.41,1.41,0,0,0,1.62.26A14.37,14.37,0,0,0,67.9,63.8c-1.84-1.84-3.32-2.21-5-2.07a5.28,5.28,0,0,0-3,1.15C59.53,63.22,59.68,64,60,64Z"/><rect id="_Rectangle_2" data-name="&lt;Rectangle&gt;" class="cls-52" x="69.34" y="67.52" width="1.03" height="0.41" transform="translate(139.7 135.45) rotate(180)"/></g><path class="cls-3" d="M202.72,235c-9.53-12.87-20.5-29.31-20.82-42.42-.25-9.89-5.49-26.51-9.32-38.64-1.66-5.26-3.09-9.79-3.81-12.8-2.42-10-6.14-14.28-14.23-16.3A122.9,122.9,0,0,1,141.73,120c-10.77-4.43-25.52-10.49-30.53-8.67-7.11,2.59-15.42,12.12-18.83,16.81-1.29,1.77-5,3.11-8.89,4.52-4.39,1.58-9.36,3.38-9.36,5.61,0,4.83,5.45,9.35,14.94,12.41,10.4,3.36,28.16-9.49,28.34-9.62a.38.38,0,0,1,.41,0c1.84.91,4.1,2,7.22,3.42l5.22,2.45c6.16,2.9,9.92,18.31,9.92,20.42a.41.41,0,0,1-.81,0c0-1.37-1.78-9-4.79-14.47.12,25.07.06,43.92-.41,45.92-1.3,5.52-7.32,12.38-20,13.54-3.4.31-10.62.47-21.45.47h0c-8.61,0-18.18-.1-26.75-.23,7.39,7.46,19.36,18.15,32.12,22.16,15.67,4.93,25.86,10.81,30.29,17.45a35.55,35.55,0,0,1,1.76,3.15l87.18.3C211.2,246.93,205.54,238.83,202.72,235Z"/><path class="cls-9" d="M141.17,248.48c-1.07-7.5,6.43-18.74,3.22-19.28s-3.1-.58-12.58,1.61c-3.48.8-17.67-3.21-14.19-7s11.24-7.76,15.26-11.51S150,186.91,150,181s-1.07-34.26-7-39.62-23.29-13.38-26.77-12-13.39,9.9-25.43,15.25a21.24,21.24,0,0,1-10.78,2,38.44,38.44,0,0,0,9,4.06c10.4,3.36,28.16-9.49,28.34-9.62a.38.38,0,0,1,.41,0c1.84.91,4.1,2,7.22,3.42l5.22,2.45c6.16,2.9,9.92,18.31,9.92,20.42a.41.41,0,0,1-.81,0c0-1.37-1.78-9-4.79-14.47.12,25.07.06,43.92-.41,45.92-1.3,5.52-7.32,12.38-20,13.54-3.4.31-10.62.47-21.45.47h0c-8.61,0-18.18-.1-26.75-.23,7.39,7.46,19.36,18.15,32.12,22.16,15.67,4.93,25.86,10.81,30.29,17.45a35.55,35.55,0,0,1,1.76,3.15l14,.05A27.42,27.42,0,0,1,141.17,248.48Z"/><text class="cls-53" transform="translate(81.05 40.35)"><tspan class="cls-54">S</tspan><tspan class="cls-55" x="5.71" y="0">/</tspan><tspan x="7.58" y="0">. 35.00</tspan></text><text class="cls-53" transform="translate(81.05 72.83)"><tspan class="cls-54">S</tspan><tspan class="cls-55" x="5.71" y="0">/</tspan><tspan x="7.58" y="0">. 38.00</tspan></text><text class="cls-53" transform="translate(81.05 104)"><tspan class="cls-54">S</tspan><tspan class="cls-55" x="5.71" y="0">/</tspan><tspan x="7.58" y="0">. 45.00</tspan></text></g></g></g></svg>