<svg xmlns="http://www.w3.org/2000/svg" viewBox="0 0 222.91 248.43"><defs><style>.cls-1{isolation:isolate;}.cls-2{fill:#c6e3f4;}.cls-3{fill:#fff6ee;}.cls-4{fill:#fff;}.cls-5{fill:#ebf3fa;}.cls-6{fill:#f8fbff;}.cls-7{fill:#a8d29f;}.cls-8{fill:#2e3552;}.cls-9{fill:#f8b5a2;}.cls-10{fill:#66d0de;}.cls-11{fill:#c3edf2;}.cls-12{mix-blend-mode:multiply;}.cls-13{fill:#e1e0df;}.cls-14{fill:#f04d35;}.cls-15{fill:#383027;}.cls-16{fill:#c3c1be;}.cls-17{fill:#a5a29e;}.cls-18{fill:none;}</style></defs><title>foto</title><g class="cls-1"><g id="Layer_2" data-name="Layer 2"><g id="Section_1" data-name="Section 1"><path class="cls-2" d="M195.68,141.66v77.23l-56.45-.11h-4l-10.56,0h-6.42l-22.54,0-21.08,0c.44-1.21,1.21-3.3,2.32-6,.84-2.12,1.88-4.63,3.11-7.43,1.51-3.47,3.29-7.38,5.33-11.56,1.43-2.94,3-6,4.68-9.14l.46-.86c1.41-2.61,2.9-5.27,4.47-7.92a168.56,168.56,0,0,1,15.72-22.54,100.23,100.23,0,0,1,8.6-9,67.45,67.45,0,0,1,9.12-7.15l.45-.28a46.15,46.15,0,0,1,6.83-3.6,33.38,33.38,0,0,1,18.86-2.45C175,134.1,183.09,136.34,195.68,141.66Z"/><rect class="cls-3" x="-6.89" y="15.06" width="236.55" height="213.46" transform="translate(-10.64 232.91) rotate(-89.87)"/><path class="cls-4" d="M29.86,30.89l-.41,187.82,166,.36.41-187.81Z"/><rect class="cls-5" x="18.76" y="41.97" width="187.81" height="166.02" transform="translate(-12.56 237.37) rotate(-89.87)"/><polygon class="cls-6" points="195.85 44.65 195.54 187.45 145.28 193.86 144.8 193.93 139.64 194.59 138.83 194.68 133.17 195.41 132.27 195.52 124.11 196.57 122.01 196.83 113.96 197.86 100.09 199.63 79.86 202.22 73.67 203.01 72.57 203.15 29.47 208.65 29.73 90.41 67.72 79.95 78.1 77.09 79.61 76.67 79.68 76.65 80.53 76.42 82.31 75.93 91.03 73.53 98.42 71.49 100.49 70.92 100.5 70.92 100.53 70.91 110.37 68.2 110.38 68.2 114.84 66.97 116.74 66.44 117.42 66.25 148.3 57.75 195.85 44.65"/><path class="cls-7" d="M29.45,218.71l.22-101.29a172.74,172.74,0,0,1,31.27,1.11h0l3,.44a102.33,102.33,0,0,1,13.5,3.09c.77.23,1.52.48,2.27.73h0q1.06.36,2.1.75h0c.33.12.66.23,1,.36l1.46.59a54.88,54.88,0,0,1,12.77,7.23,38.72,38.72,0,0,1,11,13c.9,1.73,1.75,3.59,2.57,5.57,3.44,8.28,6.22,18.56,8.47,29.79.51,2.54,1,5.13,1.46,7.75a2,2,0,0,0,0,.24.59.59,0,0,0,0,.13l.42,2.48q.51,3.06,1,6.17c.18,1.21.35,2.41.52,3.63.72,5.1,1.35,10.27,1.91,15.42.11,1,.22,2,.32,3Z"/><polygon class="cls-6" points="36.88 30.91 29.85 33.23 29.86 30.89 36.88 30.91"/><path class="cls-7" d="M180.82,31.22l15.06,0L195.69,119l-1.93-.24c-16.15-2-27.83-6.24-35.95-11.86,1.9-6.53,7.39-12,7.39-12a29.46,29.46,0,0,0-13.47,6.9c-12.21-12.47-11.48-29-4.89-41.64a25.27,25.27,0,0,1,1.46-2.46C154.44,48.64,166,43.6,175.55,36c3.4,1.46,8.42,4.32,11.38,9.26,0,0-1.6-8.71-6.39-13.74Z"/><path class="cls-8" d="M222.37,248.43,0,247.94.54,0,222.91.49ZM8.14,239.84l206.12.45.51-231.7L8.65,8.14Z"/><path class="cls-9" d="M161.41,183.11c-2.31-6.39-5-9.31-7.33-10.87-3.09-2.11-5.42-1.5-5.42-1.5-17.77-.86-7.9,27.43-7.9,27.43s5.94,7.29,9.34,20.07c.07.25.13.51.2.77l18.43.05C166.64,203.6,164,190.32,161.41,183.11Z"/><path class="cls-10" d="M169.56,218.92s-1.11-11.36-2.06-14.77-4.33-21.07-8.42-27.19A23.12,23.12,0,0,0,148,168.63l-2.39,17.47s-.3,15,.3,19.14c.34,2.31,1.83,8.65,3.07,13.76l20.2.07Z"/><path class="cls-11" d="M169.51,216.09A105,105,0,0,0,157.85,219l12.66,0A16.66,16.66,0,0,0,169.51,216.09Z"/><path class="cls-9" d="M74.23,217.51a77.89,77.89,0,0,1,12-20.17s1.74-3.87,0-11.3-7.83-14.72-7.83-14.72-6.46,2.36-13.16,13.62c-4,6.72-9,19.19-11.41,33.56l0,.2,20,.06C73.91,218.35,74.07,217.94,74.23,217.51Z"/><path class="cls-10" d="M74.86,172.92s-6.85,5.44-10,11.26-8.9,22-8.9,22a32.94,32.94,0,0,1,9.42,5.26c4.42,3.62,8.84,7.12,8.84,7.12l6.9-10.7s2.36-14,1.21-21.55S74.86,172.92,74.86,172.92Z"/><path class="cls-9" d="M125.93,158.68A2.47,2.47,0,0,1,125,157c-.2-1.72-1.5-20-.72-20-5.47.19-16,.38-21.48.57l.09-.14c0,5.19-.46,19.24-.92,20.73-1.1,3.61-8.1,5.58-8.22,5.79a4.26,4.26,0,0,0,0,1.29c.25,5.41,7.09,9.7,12.09,11.78s12.33,2.18,17.14-.33c5.17-2.69,11.76-7.77,11.86-13.59C131.36,161.71,127,159.59,125.93,158.68Z"/><g class="cls-12"><path class="cls-13" d="M102.7,147a25,25,0,0,0,21.75,2.48c-.35-5.69-.64-12.47-.17-12.48-5.44.19-15.89.37-21.39.57C102.9,139.74,102.83,143.37,102.7,147Z"/></g><path class="cls-9" d="M85.32,113.35a10,10,0,0,0-1.41-3.13,6.18,6.18,0,0,0-2.06-2.1A3,3,0,0,0,79,108a3.8,3.8,0,0,0-1.52,1.91,9.92,9.92,0,0,0,.69,9,4.92,4.92,0,0,0,2.38,2.13c2,.7,4.19-.75,5-2.67S85.32,113.35,85.32,113.35Z"/><path class="cls-9" d="M151.42,110.07a3.81,3.81,0,0,0-1.5-1.93,3,3,0,0,0-2.84.12,6.57,6.57,0,0,0-2.38,2.21c-2.12,3.76-1.79,7.08-1.39,8,.81,1.92,3,3.37,5,2.69a5,5,0,0,0,2.38-2.12A9.88,9.88,0,0,0,151.42,110.07Z"/><path class="cls-9" d="M152.63,185.13c-4.11-3.6-6.14-12.12-6.68-17.18a94.68,94.68,0,0,0-9.74-4.34C128.8,160.87,129,161,129,161c-2.77-.1-4.88.44-7.62.35v-.08l-6.9.2-5.57-.1a.28.28,0,0,0,0,.09c-2.75.07-5.49.17-8.27.26,0,0,.58-.39-6.9,2.15a83.92,83.92,0,0,0-17.28,8.28l4.4,46.6,68.88.21Z"/><path class="cls-9" d="M126.64,71.71c-10.35-5-23.52-3.88-31.77,4.57a29.71,29.71,0,0,0-2.15,2.47C79.27,96,78.94,127.31,100.64,141.1s44.16-7.19,45.33-27.58c.75-13.18-2.6-28.75-13.29-37.87A28.13,28.13,0,0,0,126.64,71.71Z"/><path class="cls-14" d="M150,77.44a6.07,6.07,0,0,0-3.31-3,22.58,22.58,0,0,0-4.08-.85,9.31,9.31,0,0,1-2.25-.58c-2.21-1-2.83-4-3.17-6.22-.55-3.72-1.83-6.22-5.92-6.93-3.72-.65-6.67.87-10.13-1.54-2-1.37-3.49-3.28-5.46-4.64-3.67-2.53-8-2.13-11.54.44C99.58,57.37,98.79,64.17,94,66.78c-2.07,1.14-4.45,1.15-6.45,2.51a11.15,11.15,0,0,0-3.9,4.7,10.37,10.37,0,0,0-.83,6c.44,2.51,1.05,4.53.47,7.23C83,88.62,82.2,90,81.83,91.34a27.75,27.75,0,0,0,1.23,17.85l0,0c-.27.36.35.85.64.49,4.84-6,5.82-13.76,5.72-21.29a15.56,15.56,0,0,0,2.26-3c1.14-1.92,1.69-3,4.22-2.94,1.45.06,2.65.67,4.11.28,2.45-.66,3-2.87,4.76-4.22s3,.27,4.11,1.69c3.34,4.17,7.71,6.9,12.71,3.38,1.36-1,2.72-3.46,4.27-4,2.46-.83,3.76,3.19,4.92,4.63,2.29,2.85,6.59,5.12,10.26,4.58-.93,7.71,0,15.59,3.85,22.49a.54.54,0,0,0,1-.19L146,111a48.36,48.36,0,0,0,4.72-16.79C151.19,89.32,152.26,82,150,77.44Z"/><path class="cls-15" d="M129.3,107.17a2.6,2.6,0,0,0-4.31-.49,6.59,6.59,0,0,0-1.27,5.86,3,3,0,0,0,1.93,2,3.31,3.31,0,0,0,3.36-1.26,5.51,5.51,0,0,0,.91-3.4A5.28,5.28,0,0,0,129.3,107.17Z"/><path class="cls-15" d="M100.92,106.52a2.6,2.6,0,0,1,4.32-.46,6.59,6.59,0,0,1,1.25,5.86,3,3,0,0,1-1.95,2,3.3,3.3,0,0,1-3.35-1.28,5.47,5.47,0,0,1-.89-3.39A5.32,5.32,0,0,1,100.92,106.52Z"/><g class="cls-12"><path class="cls-16" d="M115,102.25c-.08,1.89-.12,3.73,0,5.61s.59,3.86.13,5.56c-.82,3.07-3.91,2-5.63,4.07-3.69,4.43,6.62,4.94,8.84,4.31a.42.42,0,0,0-.12-.83c-1.86,0-6.13.87-7.75-.39-2.55-2,1.46-3.31,2.84-4,2.15-1,2.19-2.38,2.37-4.56a78.13,78.13,0,0,0,.22-9.8.43.43,0,0,0-.85,0Z"/></g><g class="cls-12"><path class="cls-17" d="M103.06,125.6c6.88,5.12,18.63,7.21,24.44-.76.35-.47-.36-.89-.76-.58-7.44,6-15.24,5.58-23.16.45-.57-.36-1,.5-.52.89Z"/></g><path class="cls-14" d="M123.55,102.06c2.62-.77,6-1.79,8.19.51,1.34,1.38,3.36-.36,2.56-2-1.93-3.9-9.31-3.16-11.79-.34a1.08,1.08,0,0,0,1,1.8Z"/><path class="cls-14" d="M106.13,102c-2.62-.79-6-1.82-8.19.46-1.34,1.38-3.36-.37-2.56-2,2-3.89,9.33-3.11,11.8-.28a1.09,1.09,0,0,1-1.05,1.8Z"/><path class="cls-10" d="M152.3,203.42c.36-5.94,1.44-19,.4-25.17s0-6.64-2.78-8.56-16.06-7.5-16.06-7.5-5.49,7.1-19.23,6.14c-9.58-.67-17-6.68-17-6.68a115.76,115.76,0,0,0-13.29,5.45A48.91,48.91,0,0,0,74,173.6,20.24,20.24,0,0,0,71,176.5s6.29,26.4,7.66,40.91l.12,1.37,72.48.23C151.8,211.38,152.18,205.38,152.3,203.42Z"/><path class="cls-11" d="M136.15,163.17l-2.29-1s-5.49,7.1-19.23,6.14c-9.58-.67-17-6.68-17-6.68s-1.14.38-2.9,1C104.6,175,126.09,175.27,136.15,163.17Z"/><path class="cls-11" d="M77.07,217.35s-6.75-5.9-11.17-8.18a73.19,73.19,0,0,0-10.12-4,33.74,33.74,0,0,0-1.47,4.42,11.6,11.6,0,0,0-.41,3.2,60.63,60.63,0,0,1,11.46,4.69c.74.43,1.44.86,2.11,1.3l8.83,0Z"/><path class="cls-11" d="M78.81,212.25c-.34-5.46-.86-10.89-1.68-16.31-.06-.36-.7-.28-.65.09.6,4.77,1,9.55,1.33,14.35.38,2.51.69,4.9.89,7l.12,1.37h.49C79.14,216.58,78.94,214.39,78.81,212.25Z"/><path class="cls-11" d="M152,208c0-.32,0-.64.06-.93.28-4.28.53-8.56.65-12.86,0-.56-.81-.55-.85,0-.62,8.27-.8,16.55-1.14,24.84h.55C151.51,215.32,151.77,211.64,152,208Z"/><path class="cls-18" d="M29.86,30.89l-.41,187.82,166,.36.41-187.81Z"/></g></g></g></svg>